<svg xmlns="http://www.w3.org/2000/svg" xmlns:xlink="http://www.w3.org/1999/xlink" width="625" zoomAndPan="magnify" viewBox="0 0 468.75 231" height="308" preserveAspectRatio="xMidYMid meet" version="1.0"><defs><filter x="0%" y="0%" width="100%" height="100%" id="169d3cd367"><feColorMatrix values="0 0 0 0 1 0 0 0 0 1 0 0 0 0 1 0 0 0 1 0" color-interpolation-filters="sRGB"/></filter><g/><clipPath id="c0d5d7b739"><path d="M 0.589844 155 L 369 155 L 369 226 L 0.589844 226 Z M 0.589844 155 " clip-rule="nonzero"/></clipPath><clipPath id="e45de57677"><path d="M 73 191 L 130 191 L 130 230.9375 L 73 230.9375 Z M 73 191 " clip-rule="nonzero"/></clipPath><clipPath id="79abad14fe"><path d="M 105 0.199219 L 265 0.199219 L 265 161 L 105 161 Z M 105 0.199219 " clip-rule="nonzero"/></clipPath><clipPath id="b1040e0919"><path d="M 105 0.199219 L 265 0.199219 L 265 161 L 105 161 Z M 105 0.199219 " clip-rule="nonzero"/></clipPath><mask id="d47c940e00"><g filter="url(#169d3cd367)"><rect x="-46.875" width="562.5" fill="#000000" y="-23.1" height="277.2" fill-opacity="0.4"/></g></mask><clipPath id="85a8b7d0f0"><path d="M 1 0.480469 L 47.507812 0.480469 L 47.507812 42.699219 L 1 42.699219 Z M 1 0.480469 " clip-rule="nonzero"/></clipPath><clipPath id="013a922fe2"><rect x="0" width="48" y="0" height="43"/></clipPath><mask id="f81050095d"><g filter="url(#169d3cd367)"><rect x="-46.875" width="562.5" fill="#000000" y="-23.1" height="277.2" fill-opacity="0.4"/></g></mask><clipPath id="5e648ab22f"><path d="M 1 0.683594 L 26.410156 0.683594 L 26.410156 18.195312 L 1 18.195312 Z M 1 0.683594 " clip-rule="nonzero"/></clipPath><clipPath id="998ca2c84a"><rect x="0" width="27" y="0" height="19"/></clipPath><clipPath id="02098dd66d"><path d="M 158 67 L 213.902344 67 L 213.902344 95 L 158 95 Z M 158 67 " clip-rule="nonzero"/></clipPath><clipPath id="481a9bba09"><path d="M 159 95 L 213 95 L 213 123.535156 L 159 123.535156 Z M 159 95 " clip-rule="nonzero"/></clipPath><clipPath id="89ef9758b2"><path d="M 171 64.285156 L 200 64.285156 L 200 73 L 171 73 Z M 171 64.285156 " clip-rule="nonzero"/></clipPath></defs><g clip-path="url(#c0d5d7b739)"><path fill="#102770" d="M 368.359375 190.476562 C 368.359375 191.050781 368.285156 191.625 368.140625 192.199219 C 367.992188 192.777344 367.769531 193.351562 367.476562 193.921875 C 367.179688 194.496094 366.8125 195.066406 366.371094 195.636719 C 365.929688 196.207031 365.414062 196.773438 364.828125 197.335938 C 364.242188 197.902344 363.582031 198.464844 362.851562 199.023438 C 362.117188 199.582031 361.316406 200.136719 360.441406 200.6875 C 359.570312 201.238281 358.625 201.785156 357.613281 202.324219 C 356.597656 202.867188 355.515625 203.40625 354.363281 203.9375 C 353.210938 204.46875 351.992188 204.996094 350.707031 205.515625 C 349.417969 206.035156 348.066406 206.550781 346.648438 207.058594 C 345.230469 207.566406 343.746094 208.066406 342.199219 208.558594 C 340.652344 209.054688 339.042969 209.539062 337.371094 210.019531 C 335.699219 210.496094 333.964844 210.96875 332.171875 211.429688 C 330.378906 211.890625 328.53125 212.34375 326.621094 212.789062 C 324.710938 213.234375 322.746094 213.671875 320.726562 214.097656 C 318.703125 214.523438 316.628906 214.941406 314.5 215.347656 C 312.375 215.753906 310.195312 216.152344 307.964844 216.539062 C 305.734375 216.925781 303.457031 217.300781 301.128906 217.667969 C 298.804688 218.03125 296.433594 218.386719 294.015625 218.730469 C 291.597656 219.070312 289.136719 219.402344 286.636719 219.722656 C 284.132812 220.042969 281.59375 220.351562 279.011719 220.648438 C 276.429688 220.941406 273.8125 221.226562 271.15625 221.496094 C 268.503906 221.769531 265.816406 222.027344 263.097656 222.273438 C 260.375 222.519531 257.625 222.753906 254.84375 222.972656 C 252.066406 223.195312 249.257812 223.402344 246.425781 223.59375 C 243.589844 223.789062 240.734375 223.96875 237.855469 224.136719 C 234.972656 224.304688 232.074219 224.457031 229.15625 224.597656 C 226.234375 224.738281 223.300781 224.863281 220.347656 224.976562 C 217.398438 225.085938 214.433594 225.1875 211.457031 225.269531 C 208.480469 225.355469 205.492188 225.425781 202.5 225.480469 C 199.503906 225.539062 196.503906 225.582031 193.496094 225.609375 C 190.492188 225.636719 187.484375 225.652344 184.476562 225.652344 C 181.464844 225.652344 178.457031 225.636719 175.453125 225.609375 C 172.445312 225.582031 169.445312 225.539062 166.449219 225.480469 C 163.457031 225.425781 160.46875 225.355469 157.492188 225.269531 C 154.515625 225.1875 151.550781 225.085938 148.601562 224.976562 C 145.648438 224.863281 142.714844 224.738281 139.792969 224.597656 C 136.875 224.457031 133.976562 224.304688 131.09375 224.136719 C 128.214844 223.96875 125.359375 223.789062 122.527344 223.59375 C 119.691406 223.402344 116.886719 223.195312 114.105469 222.972656 C 111.324219 222.753906 108.574219 222.519531 105.851562 222.273438 C 103.132812 222.027344 100.445312 221.769531 97.792969 221.496094 C 95.136719 221.226562 92.519531 220.941406 89.9375 220.648438 C 87.355469 220.351562 84.816406 220.042969 82.3125 219.722656 C 79.8125 219.402344 77.351562 219.070312 74.933594 218.730469 C 72.515625 218.386719 70.144531 218.03125 67.820312 217.667969 C 65.492188 217.300781 63.214844 216.925781 60.984375 216.539062 C 58.753906 216.152344 56.574219 215.753906 54.449219 215.347656 C 52.320312 214.941406 50.246094 214.523438 48.222656 214.097656 C 46.203125 213.671875 44.238281 213.234375 42.328125 212.789062 C 40.417969 212.34375 38.570312 211.890625 36.777344 211.429688 C 34.984375 210.96875 33.25 210.496094 31.578125 210.019531 C 29.90625 209.539062 28.296875 209.054688 26.75 208.558594 C 25.203125 208.066406 23.71875 207.566406 22.300781 207.058594 C 20.882812 206.550781 19.53125 206.035156 18.242188 205.515625 C 16.957031 204.996094 15.738281 204.46875 14.585938 203.9375 C 13.433594 203.40625 12.351562 202.867188 11.339844 202.324219 C 10.324219 201.785156 9.378906 201.238281 8.507812 200.6875 C 7.632812 200.136719 6.832031 199.582031 6.101562 199.023438 C 5.367188 198.464844 4.710938 197.902344 4.121094 197.335938 C 3.535156 196.773438 3.019531 196.207031 2.578125 195.636719 C 2.136719 195.066406 1.769531 194.496094 1.472656 193.921875 C 1.179688 193.351562 0.957031 192.777344 0.808594 192.199219 C 0.664062 191.625 0.589844 191.050781 0.589844 190.476562 C 0.589844 189.898438 0.664062 189.324219 0.808594 188.75 C 0.957031 188.175781 1.179688 187.601562 1.472656 187.027344 C 1.769531 186.453125 2.136719 185.882812 2.578125 185.3125 C 3.019531 184.742188 3.535156 184.175781 4.121094 183.613281 C 4.710938 183.046875 5.367188 182.484375 6.101562 181.929688 C 6.832031 181.371094 7.632812 180.816406 8.507812 180.265625 C 9.378906 179.714844 10.324219 179.167969 11.339844 178.625 C 12.351562 178.082031 13.433594 177.546875 14.585938 177.011719 C 15.738281 176.480469 16.957031 175.957031 18.242188 175.433594 C 19.53125 174.914062 20.882812 174.402344 22.300781 173.894531 C 23.71875 173.386719 25.203125 172.882812 26.75 172.390625 C 28.296875 171.898438 29.90625 171.410156 31.578125 170.933594 C 33.25 170.453125 34.984375 169.984375 36.777344 169.519531 C 38.570312 169.058594 40.417969 168.605469 42.328125 168.160156 C 44.238281 167.714844 46.203125 167.277344 48.222656 166.851562 C 50.246094 166.425781 52.320312 166.007812 54.449219 165.601562 C 56.574219 165.195312 58.753906 164.796875 60.984375 164.410156 C 63.214844 164.023438 65.492188 163.648438 67.820312 163.285156 C 70.144531 162.917969 72.515625 162.5625 74.933594 162.222656 C 77.351562 161.878906 79.8125 161.546875 82.3125 161.226562 C 84.816406 160.90625 87.355469 160.597656 89.9375 160.304688 C 92.519531 160.007812 95.136719 159.722656 97.792969 159.453125 C 100.445312 159.179688 103.132812 158.921875 105.851562 158.675781 C 108.574219 158.429688 111.324219 158.195312 114.105469 157.976562 C 116.886719 157.757812 119.691406 157.550781 122.527344 157.355469 C 125.359375 157.160156 128.214844 156.980469 131.09375 156.8125 C 133.976562 156.644531 136.875 156.492188 139.792969 156.351562 C 142.714844 156.214844 145.648438 156.085938 148.601562 155.976562 C 151.550781 155.863281 154.515625 155.765625 157.492188 155.679688 C 160.46875 155.59375 163.457031 155.523438 166.449219 155.46875 C 169.445312 155.410156 172.445312 155.371094 175.453125 155.339844 C 178.457031 155.3125 181.464844 155.300781 184.476562 155.300781 C 187.484375 155.300781 190.492188 155.3125 193.496094 155.339844 C 196.503906 155.371094 199.503906 155.410156 202.5 155.46875 C 205.492188 155.523438 208.480469 155.59375 211.457031 155.679688 C 214.433594 155.765625 217.398438 155.863281 220.347656 155.976562 C 223.300781 156.085938 226.234375 156.214844 229.15625 156.351562 C 232.074219 156.492188 234.972656 156.644531 237.855469 156.8125 C 240.734375 156.980469 243.589844 157.160156 246.425781 157.355469 C 249.257812 157.550781 252.066406 157.757812 254.84375 157.976562 C 257.625 158.195312 260.375 158.429688 263.097656 158.675781 C 265.816406 158.921875 268.503906 159.179688 271.15625 159.453125 C 273.8125 159.722656 276.429688 160.007812 279.011719 160.304688 C 281.59375 160.597656 284.132812 160.90625 286.636719 161.226562 C 289.136719 161.546875 291.597656 161.878906 294.015625 162.222656 C 296.433594 162.5625 298.804688 162.917969 301.128906 163.285156 C 303.457031 163.648438 305.734375 164.023438 307.964844 164.410156 C 310.195312 164.796875 312.375 165.195312 314.5 165.601562 C 316.628906 166.007812 318.703125 166.425781 320.726562 166.851562 C 322.746094 167.277344 324.710938 167.714844 326.621094 168.160156 C 328.53125 168.605469 330.378906 169.058594 332.171875 169.519531 C 333.964844 169.984375 335.699219 170.453125 337.371094 170.933594 C 339.042969 171.410156 340.652344 171.898438 342.199219 172.390625 C 343.746094 172.882812 345.230469 173.386719 346.648438 173.894531 C 348.066406 174.402344 349.417969 174.914062 350.707031 175.433594 C 351.992188 175.957031 353.210938 176.480469 354.363281 177.011719 C 355.515625 177.546875 356.597656 178.082031 357.613281 178.625 C 358.625 179.167969 359.570312 179.714844 360.441406 180.265625 C 361.316406 180.816406 362.117188 181.371094 362.851562 181.929688 C 363.582031 182.484375 364.242188 183.046875 364.828125 183.613281 C 365.414062 184.175781 365.929688 184.742188 366.371094 185.3125 C 366.8125 185.882812 367.179688 186.453125 367.476562 187.027344 C 367.769531 187.601562 367.992188 188.175781 368.140625 188.75 C 368.285156 189.324219 368.359375 189.898438 368.359375 190.476562 Z M 368.359375 190.476562 " fill-opacity="1" fill-rule="nonzero"/></g><path fill="#ffffff" d="M 239.730469 207.847656 L 128.9375 207.847656 C 118.199219 207.847656 109.492188 199.132812 109.492188 188.386719 L 109.492188 140.273438 C 109.492188 129.523438 118.199219 120.8125 128.9375 120.8125 L 239.730469 120.8125 C 250.46875 120.8125 259.175781 129.523438 259.175781 140.273438 L 259.175781 188.386719 C 259.171875 199.132812 250.46875 207.847656 239.730469 207.847656 Z M 239.730469 207.847656 " fill-opacity="1" fill-rule="nonzero"/><path fill="#102770" d="M 239.730469 208.175781 L 128.9375 208.175781 C 118.035156 208.175781 109.164062 199.296875 109.164062 188.386719 L 109.164062 140.273438 C 109.164062 129.359375 118.035156 120.480469 128.9375 120.480469 L 239.730469 120.480469 C 250.632812 120.480469 259.503906 129.359375 259.503906 140.273438 L 259.503906 188.386719 C 259.5 199.296875 250.632812 208.175781 239.730469 208.175781 Z M 128.9375 121.140625 C 118.398438 121.140625 109.824219 129.722656 109.824219 140.273438 L 109.824219 188.386719 C 109.824219 198.9375 118.398438 207.519531 128.9375 207.519531 L 239.730469 207.519531 C 250.269531 207.519531 258.84375 198.9375 258.84375 188.386719 L 258.84375 140.273438 C 258.84375 129.726562 250.269531 121.140625 239.730469 121.140625 Z M 128.9375 121.140625 " fill-opacity="1" fill-rule="nonzero"/><path fill="#102770" d="M 231.179688 197.460938 L 142.160156 197.460938 C 133.984375 197.460938 127.359375 190.828125 127.359375 182.644531 L 127.359375 146.015625 C 127.359375 137.832031 133.984375 131.199219 142.160156 131.199219 L 231.179688 131.199219 C 239.351562 131.199219 245.980469 137.832031 245.980469 146.015625 L 245.980469 182.644531 C 245.980469 190.828125 239.351562 197.460938 231.179688 197.460938 Z M 231.179688 197.460938 " fill-opacity="0.298" fill-rule="nonzero"/><path fill="#102770" d="M 239.730469 209.917969 L 128.9375 209.917969 C 117.074219 209.917969 107.425781 200.257812 107.425781 188.386719 L 107.425781 140.273438 C 107.425781 128.402344 117.074219 118.742188 128.9375 118.742188 L 239.730469 118.742188 C 251.59375 118.742188 261.242188 128.402344 261.242188 140.273438 L 261.242188 188.386719 C 261.242188 200.257812 251.589844 209.917969 239.730469 209.917969 Z M 128.9375 122.882812 C 119.355469 122.882812 111.5625 130.683594 111.5625 140.273438 L 111.5625 188.386719 C 111.5625 197.976562 119.355469 205.777344 128.9375 205.777344 L 239.730469 205.777344 C 249.3125 205.777344 257.105469 197.976562 257.105469 188.386719 L 257.105469 140.273438 C 257.105469 130.683594 249.3125 122.882812 239.730469 122.882812 Z M 128.9375 122.882812 " fill-opacity="1" fill-rule="nonzero"/><path fill="#ffffff" d="M 257.179688 194.875 C 257.039062 194.878906 256.894531 194.886719 256.75 194.890625 L 259.367188 204.265625 C 248.128906 208.199219 236.667969 211.289062 225.082031 213.542969 C 209.609375 216.558594 193.90625 218.0625 178.191406 218.0625 C 166.878906 218.0625 155.566406 217.277344 144.332031 215.710938 C 132.375 214.050781 120.507812 211.503906 108.828125 208.066406 L 95.90625 204.265625 C 95.90625 204.265625 96.855469 200.179688 98.660156 194.429688 C 101.816406 184.339844 107.589844 169.121094 115.449219 161.816406 C 117.457031 159.949219 119.503906 158.339844 121.566406 156.953125 C 144.105469 141.820312 168.640625 153.761719 168.640625 153.761719 L 200.777344 153.761719 C 200.777344 153.761719 207.363281 142.515625 259.089844 144.746094 C 259.679688 144.769531 260.273438 144.796875 260.871094 144.824219 C 292.289062 146.332031 309.402344 137.472656 309.402344 137.472656 L 329.824219 149.953125 L 332.992188 151.890625 C 332.992188 151.890625 325.269531 192.285156 258.242188 194.835938 C 257.890625 194.855469 257.535156 194.863281 257.179688 194.875 Z M 257.179688 194.875 " fill-opacity="1" fill-rule="nonzero"/><path fill="#102770" d="M 178.191406 218.386719 C 166.890625 218.386719 155.484375 217.597656 144.285156 216.039062 C 132.308594 214.375 120.347656 211.800781 108.734375 208.382812 L 95.515625 204.492188 L 95.585938 204.191406 C 95.59375 204.148438 96.558594 200.027344 98.34375 194.328125 C 101.777344 183.351562 107.492188 168.757812 115.226562 161.574219 C 117.160156 159.769531 119.230469 158.125 121.378906 156.675781 C 126.558594 153.199219 132.273438 150.867188 138.367188 149.746094 C 143.238281 148.847656 148.359375 148.714844 153.589844 149.355469 C 161.984375 150.378906 168 153.097656 168.710938 153.429688 L 200.597656 153.429688 C 201.085938 152.777344 203.296875 150.328125 210.433594 148.101562 C 215.167969 146.625 221.117188 145.539062 228.121094 144.882812 C 236.863281 144.0625 247.289062 143.90625 259.101562 144.414062 C 259.671875 144.4375 260.253906 144.464844 260.839844 144.492188 L 260.882812 144.492188 C 277.058594 145.269531 289.347656 143.242188 296.808594 141.402344 C 304.890625 139.40625 309.207031 137.203125 309.246094 137.179688 L 309.410156 137.09375 L 309.570312 137.191406 L 329.992188 149.671875 L 333.351562 151.726562 L 333.308594 151.949219 C 333.289062 152.054688 332.796875 154.558594 331.027344 158.375 C 329.402344 161.890625 326.335938 167.21875 320.980469 172.632812 C 314.960938 178.714844 307.335938 183.664062 298.316406 187.351562 C 287.054688 191.949219 273.574219 194.578125 258.25 195.164062 C 257.898438 195.179688 257.546875 195.191406 257.1875 195.203125 L 257.175781 195.203125 L 259.765625 204.472656 L 259.472656 204.574219 C 248.320312 208.480469 236.769531 211.605469 225.140625 213.863281 C 209.734375 216.867188 193.9375 218.386719 178.191406 218.386719 Z M 96.296875 204.039062 L 108.921875 207.75 C 120.503906 211.15625 132.433594 213.726562 144.375 215.386719 C 155.542969 216.941406 166.921875 217.730469 178.191406 217.730469 C 193.894531 217.730469 209.648438 216.214844 225.019531 213.21875 C 236.515625 210.984375 247.933594 207.902344 258.96875 204.054688 L 256.320312 194.578125 L 257.167969 194.546875 C 257.523438 194.535156 257.875 194.523438 258.222656 194.507812 C 292.714844 193.191406 311.117188 181.652344 320.480469 172.203125 C 329.789062 162.816406 332.257812 153.578125 332.617188 152.042969 L 329.648438 150.234375 L 309.382812 137.847656 C 308.511719 138.269531 304.253906 140.238281 296.996094 142.03125 C 289.488281 143.886719 277.121094 145.929688 260.855469 145.148438 L 260.8125 145.148438 C 260.226562 145.121094 259.644531 145.09375 259.074219 145.070312 C 232.558594 143.929688 218.195312 146.398438 210.8125 148.671875 C 202.816406 151.136719 201.074219 153.898438 201.058594 153.929688 L 200.960938 154.085938 L 200.773438 154.089844 L 168.5625 154.089844 L 168.492188 154.054688 C 168.433594 154.027344 162.289062 151.078125 153.488281 150.003906 C 145.382812 149.019531 133.296875 149.46875 121.746094 157.222656 C 119.628906 158.648438 117.582031 160.273438 115.671875 162.054688 C 108.046875 169.140625 102.382812 183.625 98.972656 194.527344 C 97.46875 199.320312 96.550781 202.992188 96.296875 204.039062 Z M 96.296875 204.039062 " fill-opacity="1" fill-rule="nonzero"/><path fill="#102770" d="M 259.367188 204.265625 C 248.128906 208.199219 236.667969 211.289062 225.082031 213.542969 C 209.609375 216.558594 193.90625 218.0625 178.191406 218.0625 C 166.878906 218.0625 155.566406 217.277344 144.332031 215.710938 C 132.375 214.050781 120.507812 211.503906 108.828125 208.066406 L 95.90625 204.265625 C 95.90625 204.265625 96.855469 200.179688 98.660156 194.429688 C 99.546875 194.148438 100.457031 193.980469 101.382812 193.9375 C 125.3125 192.84375 146.746094 210.746094 186.433594 210.273438 C 243.792969 209.589844 255.152344 186.710938 255.152344 186.710938 L 258.238281 194.835938 C 257.890625 194.855469 257.535156 194.863281 257.179688 194.875 C 257.039062 194.882812 256.894531 194.886719 256.75 194.894531 Z M 259.367188 204.265625 " fill-opacity="0.298" fill-rule="nonzero"/><path fill="#102770" d="M 332.988281 151.886719 C 332.988281 151.886719 325.179688 192.707031 257.179688 194.875 L 252.148438 174.625 C 252.148438 174.625 312.539062 174.964844 329.820312 149.953125 Z M 332.988281 151.886719 " fill-opacity="0.298" fill-rule="nonzero"/><path fill="#102770" d="M 178.191406 222.925781 C 166.785156 222.925781 155.273438 221.921875 143.972656 219.9375 C 142.984375 219.765625 142.261719 218.90625 142.261719 217.898438 L 142.261719 215.175781 C 142.261719 209.035156 144.171875 203.246094 147.648438 198.867188 C 151.230469 194.351562 156.039062 191.863281 161.183594 191.863281 L 208.234375 191.863281 C 213.378906 191.863281 218.183594 194.351562 221.765625 198.863281 C 225.238281 203.238281 227.148438 209.027344 227.152344 215.167969 C 227.152344 216.121094 226.5 216.953125 225.574219 217.179688 C 210.019531 220.992188 194.082031 222.925781 178.191406 222.925781 Z M 146.398438 216.152344 C 156.914062 217.898438 167.601562 218.785156 178.191406 218.785156 C 193.195312 218.785156 208.246094 217.023438 222.960938 213.550781 C 222.320312 203.738281 215.957031 196.007812 208.234375 196.007812 L 161.183594 196.007812 C 153.03125 196.007812 146.398438 204.605469 146.398438 215.175781 Z M 146.398438 216.152344 " fill-opacity="1" fill-rule="nonzero"/><path fill="#102770" d="M 95.90625 206.339844 C 95.75 206.339844 95.59375 206.320312 95.433594 206.285156 C 94.324219 206.027344 93.628906 204.914062 93.890625 203.800781 C 93.964844 203.476562 95.757812 195.828125 99.105469 186.636719 C 103.65625 174.140625 108.683594 165.28125 114.042969 160.296875 C 119.742188 154.996094 126.21875 151.253906 133.28125 149.171875 C 138.929688 147.511719 144.949219 146.90625 151.183594 147.371094 C 160.425781 148.0625 167.296875 150.890625 169.089844 151.691406 L 199.8125 151.691406 C 202.8125 148.621094 215.148438 140.554688 260.964844 142.753906 C 276.851562 143.519531 288.917969 141.542969 296.242188 139.75 C 304.175781 137.808594 308.410156 135.65625 308.449219 135.636719 C 309.089844 135.304688 309.859375 135.332031 310.476562 135.710938 L 334.066406 150.121094 C 334.796875 150.566406 335.175781 151.414062 335.023438 152.257812 C 334.945312 152.703125 332.933594 163.253906 322.199219 174.078125 C 315.957031 180.371094 308.03125 185.464844 298.640625 189.21875 C 287.011719 193.867188 273.078125 196.460938 257.234375 196.925781 C 256.089844 196.957031 255.140625 196.0625 255.105469 194.917969 C 255.070312 193.773438 255.96875 192.820312 257.113281 192.789062 C 291.761719 191.765625 310.035156 180.460938 319.261719 171.160156 C 326.941406 163.417969 329.746094 155.855469 330.613281 152.863281 L 309.273438 139.824219 C 307.484375 140.621094 303.492188 142.226562 297.414062 143.726562 C 289.792969 145.609375 277.25 147.683594 260.769531 146.894531 C 233.507812 145.582031 218.886719 148.03125 211.421875 150.316406 C 204.40625 152.460938 202.578125 154.792969 202.5625 154.8125 C 202.191406 155.445312 201.511719 155.835938 200.777344 155.835938 L 168.640625 155.835938 C 168.328125 155.835938 168.019531 155.765625 167.734375 155.628906 C 167.667969 155.59375 160.546875 152.199219 150.726562 151.492188 C 137.710938 150.554688 126.316406 154.539062 116.859375 163.332031 C 105.128906 174.242188 97.992188 204.4375 97.921875 204.742188 C 97.695312 205.695312 96.847656 206.339844 95.90625 206.339844 Z M 95.90625 206.339844 " fill-opacity="1" fill-rule="nonzero"/><path fill="#102770" d="M 259.089844 144.746094 C 254.921875 152.6875 246.117188 159.605469 233.914062 164.128906 C 222.257812 168.449219 205.910156 172.304688 184.710938 172.3125 L 184.675781 172.3125 C 163.472656 172.304688 147.140625 168.453125 135.488281 164.128906 C 130.164062 162.15625 125.492188 159.722656 121.566406 156.953125 C 144.105469 141.820312 168.640625 153.757812 168.640625 153.757812 L 200.777344 153.757812 C 200.773438 153.757812 207.363281 142.515625 259.089844 144.746094 Z M 259.089844 144.746094 " fill-opacity="0.298" fill-rule="nonzero"/><path fill="#ffffff" d="M 77.191406 202.058594 C 77.191406 202.058594 72.582031 211.902344 79.886719 220.382812 C 87.191406 228.863281 107.738281 230.847656 116.242188 227.5 C 125.371094 223.910156 126.304688 210.589844 126.957031 206.214844 C 128.804688 193.808594 84.234375 188.152344 77.191406 202.058594 Z M 77.191406 202.058594 " fill-opacity="1" fill-rule="nonzero"/><path fill="#102770" d="M 105.859375 229.367188 C 96.386719 229.367188 84.796875 226.589844 79.636719 220.597656 C 75.789062 216.132812 75.25 211.292969 75.472656 208.019531 C 75.710938 204.476562 76.84375 202.023438 76.894531 201.917969 L 76.898438 201.910156 C 79.066406 197.625 84.9375 194.777344 93.425781 193.890625 C 100.886719 193.113281 109.417969 193.945312 116.234375 196.121094 C 119.765625 197.25 122.632812 198.695312 124.527344 200.308594 C 126.671875 202.136719 127.597656 204.140625 127.28125 206.265625 C 127.226562 206.640625 127.167969 207.078125 127.101562 207.582031 C 126.746094 210.308594 126.203125 214.429688 124.683594 218.386719 C 122.839844 223.191406 120.042969 226.359375 116.363281 227.808594 C 113.75 228.835938 110.003906 229.367188 105.859375 229.367188 Z M 77.488281 202.203125 C 77.433594 202.316406 76.351562 204.730469 76.125 208.089844 C 75.917969 211.234375 76.441406 215.882812 80.136719 220.167969 C 83.359375 223.914062 89.75 226.785156 97.664062 228.050781 C 104.695312 229.175781 111.941406 228.839844 116.121094 227.191406 C 124.28125 223.984375 125.746094 212.847656 126.449219 207.496094 C 126.515625 206.988281 126.570312 206.546875 126.628906 206.167969 C 127.175781 202.503906 123.316406 199.070312 116.035156 196.75 C 109.398438 194.632812 100.761719 193.785156 93.492188 194.542969 C 85.242188 195.402344 79.558594 198.125 77.488281 202.203125 Z M 77.488281 202.203125 " fill-opacity="1" fill-rule="nonzero"/><path fill="#102770" d="M 126.953125 206.214844 C 126.304688 210.585938 125.367188 223.90625 116.242188 227.5 C 107.738281 230.847656 87.1875 228.863281 79.886719 220.386719 C 74.652344 214.304688 75.535156 207.53125 76.460938 204.175781 C 77.070312 205.683594 78.136719 207.25 79.886719 208.753906 C 87.1875 215.042969 107.738281 216.511719 116.242188 214.03125 C 122.652344 212.15625 125.027344 206.71875 126.089844 202.53125 C 126.832031 203.671875 127.148438 204.90625 126.953125 206.214844 Z M 126.953125 206.214844 " fill-opacity="0.298" fill-rule="nonzero"/><g clip-path="url(#e45de57677)"><path fill="#102770" d="M 105.871094 231.117188 C 103.121094 231.117188 100.203125 230.886719 97.289062 230.421875 C 92.3125 229.625 83.234375 227.4375 78.320312 221.734375 C 74.972656 217.847656 73.386719 213.0625 73.738281 207.898438 C 74 204.035156 75.265625 201.292969 75.320312 201.175781 C 75.328125 201.15625 75.339844 201.140625 75.347656 201.121094 C 80.71875 190.515625 103.089844 190.09375 116.765625 194.457031 C 120.566406 195.671875 123.558594 197.191406 125.65625 198.980469 C 128.933594 201.773438 129.285156 204.621094 129.003906 206.519531 C 128.949219 206.878906 128.894531 207.308594 128.828125 207.804688 C 128.480469 210.441406 127.902344 214.859375 126.308594 219.007812 C 124.285156 224.285156 121.152344 227.789062 117 229.425781 C 114.164062 230.542969 110.230469 231.117188 105.871094 231.117188 Z M 79.058594 202.953125 C 78.945312 203.210938 78.03125 205.378906 77.855469 208.328125 C 77.613281 212.378906 78.824219 215.980469 81.453125 219.03125 C 84.414062 222.46875 90.421875 225.132812 97.941406 226.332031 C 104.683594 227.410156 111.574219 227.113281 115.488281 225.574219 C 122.691406 222.738281 124.066406 212.289062 124.726562 207.269531 C 124.792969 206.753906 124.851562 206.308594 124.910156 205.914062 C 125.304688 203.261719 121.703125 200.386719 115.507812 198.40625 C 109.085938 196.359375 100.71875 195.542969 93.675781 196.277344 C 86.164062 197.058594 80.839844 199.492188 79.058594 202.953125 Z M 79.058594 202.953125 " fill-opacity="1" fill-rule="nonzero"/></g><path fill="#102770" d="M 261.808594 215.589844 C 260.878906 215.589844 260.035156 214.960938 259.800781 214.019531 L 248.359375 167.964844 C 248.085938 166.855469 248.761719 165.730469 249.871094 165.457031 C 250.980469 165.179688 252.101562 165.855469 252.375 166.964844 L 263.816406 213.019531 C 264.09375 214.128906 263.417969 215.253906 262.308594 215.53125 C 262.140625 215.570312 261.972656 215.589844 261.808594 215.589844 Z M 261.808594 215.589844 " fill-opacity="1" fill-rule="nonzero"/><path fill="#ffffff" d="M 310.140625 132.34375 L 320.527344 131.234375 L 309.457031 27.171875 C 309.152344 24.300781 306.578125 22.21875 303.710938 22.527344 C 300.84375 22.832031 298.765625 25.40625 299.070312 28.277344 Z M 310.140625 132.34375 " fill-opacity="1" fill-rule="nonzero"/><path fill="#102770" d="M 320.523438 131.234375 L 310.136719 132.339844 L 299.070312 28.277344 C 299.050781 28.089844 299.042969 27.902344 299.042969 27.714844 C 299.042969 25.242188 300.785156 23.097656 303.207031 22.597656 L 311.753906 102.894531 C 312.089844 106.042969 314.910156 108.320312 318.050781 107.988281 Z M 320.523438 131.234375 " fill-opacity="0.298" fill-rule="nonzero"/><path fill="#ffffff" d="M 390.734375 79.304688 L 383.648438 82.234375 C 383.648438 82.234375 358.589844 83.792969 355.660156 81.941406 C 355.4375 81.800781 355.210938 81.667969 354.984375 81.53125 C 354.980469 81.527344 354.972656 81.511719 354.964844 81.511719 C 352.496094 80.03125 350.863281 80.472656 348.414062 79.785156 C 348.40625 79.785156 345.921875 80.46875 345.867188 80.472656 C 336.433594 77.84375 329.175781 79.425781 322.878906 82.410156 C 322.871094 82.410156 322.773438 81.285156 322.773438 81.285156 C 317.398438 83.824219 314.007812 86.609375 314.007812 86.609375 L 308.144531 31.535156 C 308.144531 31.535156 308.550781 30.863281 309.355469 29.804688 C 310.003906 28.957031 310.917969 27.851562 312.09375 26.648438 C 312.101562 26.640625 312.113281 26.632812 312.113281 26.628906 C 312.171875 26.574219 312.226562 26.511719 312.292969 26.445312 C 312.304688 26.425781 312.324219 26.410156 312.34375 26.398438 C 316.972656 21.742188 325.421875 15.800781 337.652344 17.046875 C 338.265625 17.109375 338.890625 17.191406 339.523438 17.296875 C 342.882812 17.8125 346.503906 18.894531 350.398438 20.660156 C 351.414062 21.117188 352.148438 21.1875 352.820312 21.230469 C 353.613281 21.277344 354.335938 21.285156 355.339844 21.832031 C 363.339844 26.25 375.539062 23.535156 384.054688 20.058594 L 388.855469 62.652344 Z M 390.734375 79.304688 " fill-opacity="1" fill-rule="nonzero"/><path fill="#102770" d="M 372.800781 43.136719 C 373.246094 41.75 373.71875 40.351562 373.726562 38.851562 C 373.636719 38.671875 373.554688 38.488281 373.460938 38.304688 C 373.078125 38.074219 372.71875 37.804688 372.3125 37.609375 C 369.464844 36.230469 366.476562 35.316406 363.328125 34.964844 C 359.222656 34.503906 355.265625 35.011719 351.566406 36.941406 C 350.230469 37.640625 348.96875 38.476562 347.6875 39.273438 C 347.34375 39.492188 347.097656 39.5625 346.730469 39.296875 C 345.863281 38.671875 344.875 38.273438 343.839844 38.011719 C 341.070312 37.324219 338.390625 37.730469 335.769531 38.730469 C 332.925781 39.816406 330.46875 41.539062 328.117188 43.4375 C 327.117188 44.238281 327.21875 45.378906 328.335938 46.023438 C 329.046875 46.421875 329.753906 46.816406 330.464844 47.21875 C 332.160156 48.167969 333.855469 49.113281 335.550781 50.0625 C 335.535156 50.117188 335.535156 50.148438 335.519531 50.175781 C 335.5 50.207031 335.472656 50.246094 335.445312 50.273438 C 334.496094 51.097656 334.5 52.03125 335.125 53.035156 C 335.191406 53.148438 335.242188 53.273438 335.300781 53.390625 C 335.605469 54.023438 335.921875 54.664062 336.25 55.324219 C 335.554688 55.671875 334.882812 55.949219 334.261719 56.320312 C 333.949219 56.507812 333.644531 56.8125 333.476562 57.140625 C 333.195312 57.667969 333.371094 58.296875 333.808594 58.691406 C 334.273438 59.113281 334.820312 59.210938 335.386719 58.953125 C 336.097656 58.632812 336.789062 58.273438 337.519531 57.914062 C 337.964844 58.824219 338.382812 59.6875 338.804688 60.539062 C 339.289062 61.511719 339.710938 61.746094 340.78125 61.667969 C 340.976562 61.644531 341.167969 61.644531 341.394531 61.632812 C 341.367188 61.855469 341.347656 62.03125 341.324219 62.195312 C 340.929688 64.84375 340.527344 67.492188 340.148438 70.132812 C 339.96875 71.386719 340.828125 72.167969 342.050781 71.859375 C 343.15625 71.585938 344.265625 71.28125 345.363281 70.941406 C 347.894531 70.15625 350.273438 69.050781 352.332031 67.355469 C 354.914062 65.226562 356.628906 62.609375 356.761719 59.144531 C 356.765625 59.007812 356.921875 58.804688 357.050781 58.757812 C 358.199219 58.304688 359.367188 57.902344 360.519531 57.445312 C 363.121094 56.402344 365.359375 54.820312 367.269531 52.78125 C 369.867188 50.003906 371.644531 46.742188 372.800781 43.136719 Z M 337.542969 47.882812 C 335.582031 46.78125 333.550781 45.636719 331.464844 44.460938 C 334.261719 42.46875 337.128906 40.816406 340.597656 40.566406 C 342.09375 40.460938 343.730469 40.820312 344.621094 41.410156 C 342.277344 43.554688 339.933594 45.703125 337.542969 47.882812 Z M 353.023438 62.191406 C 352.148438 63.785156 350.855469 64.96875 349.355469 65.953125 C 347.496094 67.160156 345.457031 67.929688 343.292969 68.574219 C 343.65625 66.140625 344.003906 63.757812 344.347656 61.421875 C 347.542969 60.863281 350.660156 60.316406 353.800781 59.765625 C 353.753906 60.589844 353.445312 61.414062 353.023438 62.191406 Z M 367.183594 48.242188 C 365.78125 50.304688 364.121094 52.105469 361.996094 53.445312 C 360.359375 54.472656 358.589844 55.210938 356.757812 55.808594 C 351.796875 57.4375 346.671875 58.21875 341.492188 58.710938 C 341.238281 58.730469 341.097656 58.691406 340.984375 58.441406 C 340.738281 57.886719 340.449219 57.34375 340.183594 56.792969 C 340.164062 56.757812 340.164062 56.714844 340.148438 56.621094 C 340.292969 56.546875 340.449219 56.472656 340.601562 56.398438 C 343.820312 54.8125 347.046875 53.234375 350.265625 51.644531 C 351.191406 51.195312 351.4375 50.148438 350.8125 49.390625 C 350.375 48.859375 349.691406 48.730469 348.996094 49.0625 C 347.0625 50.007812 345.136719 50.953125 343.203125 51.90625 C 341.765625 52.613281 340.335938 53.316406 338.839844 54.054688 C 338.511719 53.382812 338.1875 52.765625 337.914062 52.128906 C 337.867188 52.015625 337.984375 51.777344 338.097656 51.671875 C 340.027344 49.75 341.945312 47.8125 343.929688 45.9375 C 345.890625 44.078125 348.027344 42.421875 350.308594 40.96875 C 352.449219 39.59375 354.699219 38.449219 357.234375 38.007812 C 358.859375 37.722656 360.492188 37.632812 362.132812 37.78125 C 362.285156 37.789062 362.464844 37.976562 362.542969 38.132812 C 363.753906 40.574219 364.945312 43.015625 366.140625 45.457031 C 366.5 46.1875 366.851562 46.925781 367.226562 47.648438 C 367.339844 47.867188 367.324219 48.03125 367.183594 48.242188 Z M 368.742188 45.480469 C 367.550781 43.039062 366.386719 40.667969 365.21875 38.285156 C 365.230469 38.234375 365.257812 38.183594 365.273438 38.132812 C 367.070312 38.722656 368.863281 39.316406 370.679688 39.910156 C 370.246094 41.910156 369.582031 43.6875 368.742188 45.480469 Z M 368.742188 45.480469 " fill-opacity="1" fill-rule="nonzero"/><path fill="#ffffff" d="M 367.230469 47.648438 C 366.851562 46.925781 366.5 46.1875 366.144531 45.457031 C 364.949219 43.011719 363.757812 40.574219 362.542969 38.132812 C 362.46875 37.976562 362.285156 37.789062 362.136719 37.78125 C 360.496094 37.632812 358.859375 37.722656 357.234375 38.007812 C 354.703125 38.449219 352.453125 39.59375 350.3125 40.96875 C 348.03125 42.421875 345.894531 44.078125 343.929688 45.9375 C 341.945312 47.808594 340.027344 49.746094 338.097656 51.671875 C 337.984375 51.777344 337.867188 52.015625 337.914062 52.128906 C 338.191406 52.765625 338.511719 53.382812 338.84375 54.054688 C 340.339844 53.316406 341.765625 52.613281 343.203125 51.90625 C 345.136719 50.953125 347.066406 50.007812 349 49.0625 C 349.691406 48.730469 350.378906 48.859375 350.816406 49.390625 C 351.4375 50.148438 351.195312 51.195312 350.265625 51.644531 C 347.046875 53.234375 343.820312 54.8125 340.605469 56.398438 C 340.449219 56.472656 340.292969 56.546875 340.148438 56.621094 C 340.167969 56.714844 340.164062 56.757812 340.1875 56.792969 C 340.453125 57.34375 340.738281 57.886719 340.984375 58.441406 C 341.097656 58.691406 341.242188 58.730469 341.492188 58.710938 C 346.671875 58.21875 351.796875 57.4375 356.761719 55.808594 C 358.589844 55.207031 360.359375 54.472656 362 53.445312 C 364.121094 52.105469 365.78125 50.304688 367.183594 48.242188 C 367.324219 48.03125 367.339844 47.867188 367.230469 47.648438 Z M 361.6875 49.902344 C 359.234375 51.085938 356.300781 50.089844 355.117188 47.664062 C 353.925781 45.242188 354.933594 42.304688 357.371094 41.097656 C 359.761719 39.914062 362.699219 40.929688 363.894531 43.351562 C 365.078125 45.761719 364.078125 48.746094 361.6875 49.902344 Z M 361.6875 49.902344 " fill-opacity="1" fill-rule="nonzero"/><path fill="#ec1c24" d="M 368.742188 45.476562 C 367.550781 43.042969 366.386719 40.664062 365.21875 38.285156 C 365.234375 38.234375 365.253906 38.1875 365.273438 38.132812 C 367.066406 38.726562 368.863281 39.316406 370.679688 39.914062 C 370.246094 41.910156 369.582031 43.6875 368.742188 45.476562 Z M 368.742188 45.476562 " fill-opacity="1" fill-rule="nonzero"/><path fill="#ec1c24" d="M 344.621094 41.410156 C 342.277344 43.554688 339.933594 45.699219 337.542969 47.882812 C 335.578125 46.777344 333.546875 45.632812 331.460938 44.460938 C 334.261719 42.46875 337.128906 40.8125 340.597656 40.566406 C 342.09375 40.457031 343.730469 40.820312 344.621094 41.410156 Z M 344.621094 41.410156 " fill-opacity="1" fill-rule="nonzero"/><path fill="#ec1c24" d="M 349.355469 65.953125 C 347.492188 67.160156 345.457031 67.933594 343.289062 68.570312 C 343.652344 66.140625 344.003906 63.757812 344.34375 61.421875 C 347.539062 60.863281 350.660156 60.316406 353.804688 59.765625 C 353.753906 60.589844 353.445312 61.414062 353.023438 62.195312 C 352.152344 63.789062 350.859375 64.96875 349.355469 65.953125 Z M 349.355469 65.953125 " fill-opacity="1" fill-rule="nonzero"/><path fill="#102770" d="M 363.894531 43.351562 C 362.699219 40.929688 359.761719 39.914062 357.371094 41.097656 C 354.933594 42.304688 353.925781 45.242188 355.117188 47.664062 C 356.300781 50.089844 359.238281 51.085938 361.691406 49.902344 C 364.078125 48.746094 365.078125 45.761719 363.894531 43.351562 Z M 360.605469 47.839844 C 359.363281 48.441406 357.820312 47.910156 357.195312 46.660156 C 356.546875 45.375 357.109375 43.785156 358.433594 43.160156 C 359.671875 42.566406 361.242188 43.125 361.839844 44.371094 C 362.460938 45.667969 361.910156 47.207031 360.605469 47.839844 Z M 360.605469 47.839844 " fill-opacity="1" fill-rule="nonzero"/><path fill="#22a7f0" d="M 360.605469 47.839844 C 359.363281 48.441406 357.820312 47.910156 357.191406 46.660156 C 356.546875 45.375 357.109375 43.785156 358.433594 43.160156 C 359.671875 42.570312 361.242188 43.125 361.839844 44.371094 C 362.460938 45.667969 361.914062 47.210938 360.605469 47.839844 Z M 360.605469 47.839844 " fill-opacity="1" fill-rule="nonzero"/><path fill="#102770" d="M 314.578125 134.828125 C 313.222656 134.828125 311.914062 134.371094 310.84375 133.503906 C 309.605469 132.503906 308.832031 131.082031 308.664062 129.496094 L 297.925781 28.5625 C 297.757812 26.976562 298.214844 25.421875 299.214844 24.183594 C 300.214844 22.945312 301.636719 22.167969 303.222656 22 C 304.804688 21.832031 306.359375 22.289062 307.597656 23.289062 C 308.835938 24.289062 309.609375 25.714844 309.777344 27.300781 L 320.515625 128.234375 C 320.683594 129.816406 320.226562 131.371094 319.226562 132.613281 C 318.226562 133.851562 316.804688 134.625 315.21875 134.796875 C 315.003906 134.816406 314.789062 134.828125 314.578125 134.828125 Z M 303.855469 26.105469 C 303.789062 26.105469 303.726562 26.109375 303.660156 26.117188 C 303.175781 26.167969 302.742188 26.40625 302.433594 26.785156 C 302.128906 27.164062 301.988281 27.640625 302.039062 28.121094 L 312.777344 129.054688 C 312.828125 129.539062 313.0625 129.976562 313.441406 130.28125 C 313.820312 130.589844 314.296875 130.726562 314.78125 130.675781 C 315.265625 130.625 315.699219 130.390625 316.007812 130.011719 C 316.3125 129.628906 316.453125 129.15625 316.402344 128.671875 L 305.664062 27.738281 C 305.613281 27.253906 305.375 26.816406 304.996094 26.511719 C 304.667969 26.246094 304.269531 26.105469 303.855469 26.105469 Z M 303.855469 26.105469 " fill-opacity="1" fill-rule="nonzero"/><path fill="#102770" d="M 314.011719 88.6875 C 313.28125 88.6875 312.574219 88.300781 312.195312 87.617188 C 311.644531 86.617188 312.003906 85.359375 313.003906 84.804688 C 313.199219 84.695312 317.890625 82.117188 325.558594 80.222656 C 332.609375 78.480469 343.636719 77.015625 356.128906 79.921875 C 367.890625 82.664062 376.960938 81.6875 382.5 80.382812 C 386.460938 79.453125 389.230469 78.226562 390.664062 77.496094 L 382.390625 22.886719 C 374.835938 25.40625 360.976562 27.753906 349.539062 22.546875 C 338.570312 17.554688 328.578125 17.730469 319.832031 23.078125 C 313.285156 27.082031 309.953125 32.546875 309.917969 32.601562 C 309.332031 33.582031 308.058594 33.898438 307.082031 33.308594 C 306.101562 32.71875 305.785156 31.449219 306.375 30.46875 C 306.53125 30.207031 310.273438 24.070312 317.675781 19.542969 C 322.054688 16.867188 326.804688 15.308594 331.800781 14.910156 C 337.988281 14.417969 344.535156 15.71875 351.253906 18.777344 C 361.945312 23.648438 376.253906 21.070312 383.261719 18.148438 C 383.847656 17.902344 384.515625 17.941406 385.070312 18.253906 C 385.625 18.566406 386.003906 19.121094 386.101562 19.75 L 394.96875 78.292969 C 395.089844 79.09375 394.734375 79.890625 394.058594 80.335938 C 393.910156 80.433594 390.300781 82.769531 383.679688 84.359375 C 377.671875 85.804688 367.851562 86.90625 355.191406 83.957031 C 343.554688 81.246094 333.269531 82.597656 326.691406 84.210938 C 319.515625 85.964844 315.050781 88.40625 315.007812 88.429688 C 314.691406 88.605469 314.347656 88.6875 314.011719 88.6875 Z M 314.011719 88.6875 " fill-opacity="1" fill-rule="nonzero"/><path fill="#ffffff" d="M 324.890625 163.664062 C 324.890625 163.664062 315.054688 168.277344 306.582031 160.964844 C 298.109375 153.65625 296.132812 133.085938 299.472656 124.574219 C 303.0625 115.441406 316.335938 113.488281 320.738281 113.851562 C 338.507812 115.324219 338.785156 156.613281 324.890625 163.664062 Z M 324.890625 163.664062 " fill-opacity="1" fill-rule="nonzero"/><path fill="#102770" d="M 317.683594 165.429688 C 314.5 165.429688 310.289062 164.601562 306.367188 161.21875 C 297.761719 153.789062 295.792969 133.050781 299.167969 124.457031 C 301.160156 119.382812 305.988281 116.699219 309.6875 115.34375 C 313.867188 113.808594 318.359375 113.324219 320.765625 113.523438 C 327.371094 114.070312 332.28125 120.121094 334.238281 130.117188 C 335.503906 136.578125 335.335938 143.914062 333.777344 150.246094 C 332.097656 157.082031 328.992188 161.953125 325.042969 163.957031 L 325.03125 163.960938 C 324.929688 164.011719 322.476562 165.144531 318.9375 165.382812 C 318.542969 165.414062 318.121094 165.429688 317.683594 165.429688 Z M 319.617188 114.140625 C 317.15625 114.140625 313.429688 114.667969 309.914062 115.960938 C 306.339844 117.273438 301.683594 119.851562 299.78125 124.695312 C 298.136719 128.882812 297.800781 136.132812 298.925781 143.167969 C 300.1875 151.09375 303.058594 157.488281 306.800781 160.714844 C 311.082031 164.414062 315.726562 164.9375 318.867188 164.730469 C 322.226562 164.503906 324.636719 163.417969 324.75 163.367188 C 328.527344 161.445312 331.503906 156.730469 333.140625 150.085938 C 334.671875 143.84375 334.839844 136.609375 333.59375 130.242188 C 331.699219 120.554688 327 114.699219 320.710938 114.179688 C 320.382812 114.152344 320.015625 114.140625 319.617188 114.140625 Z M 319.617188 114.140625 " fill-opacity="1" fill-rule="nonzero"/><path fill="#102770" d="M 324.890625 163.664062 C 324.890625 163.664062 315.058594 168.277344 306.582031 160.964844 C 300.222656 155.476562 297.519531 142.507812 297.980469 132.785156 C 298.378906 137.992188 301.140625 143.921875 306.582031 146.664062 C 315.058594 150.925781 324.890625 148.238281 324.890625 148.238281 C 330.6875 146.519531 334.023438 141.324219 334.640625 135.792969 C 335.410156 147.425781 332.015625 160.046875 324.890625 163.664062 Z M 324.890625 163.664062 " fill-opacity="0.298" fill-rule="nonzero"/><path fill="#ffffff" d="M 298.832031 126.605469 C 298.378906 128.394531 298.09375 130.496094 297.980469 132.78125 C 297.808594 130.46875 298.097656 128.296875 298.832031 126.605469 Z M 298.832031 126.605469 " fill-opacity="1" fill-rule="nonzero"/><path fill="#ffffff" d="M 334.640625 135.789062 C 334.421875 132.589844 333.894531 129.457031 333.039062 126.613281 C 334.472656 129.394531 334.992188 132.648438 334.640625 135.789062 Z M 334.640625 135.789062 " fill-opacity="1" fill-rule="nonzero"/><path fill="#102770" d="M 317.65625 167.171875 C 313.035156 167.171875 308.765625 165.582031 305.230469 162.535156 C 299.53125 157.617188 297.347656 148.527344 296.554688 143.546875 C 295.351562 136.003906 295.730469 128.445312 297.550781 123.816406 C 299.3125 119.324219 303.304688 115.832031 309.089844 113.707031 C 313.539062 112.074219 318.230469 111.566406 320.90625 111.789062 C 328.347656 112.40625 333.828125 118.964844 335.945312 129.785156 C 337.257812 136.480469 337.082031 144.089844 335.46875 150.660156 C 333.664062 158 330.242188 163.273438 325.828125 165.511719 C 325.808594 165.519531 325.789062 165.53125 325.769531 165.539062 C 325.65625 165.59375 322.914062 166.859375 319.054688 167.121094 C 318.585938 167.15625 318.117188 167.171875 317.65625 167.171875 Z M 324.890625 163.664062 L 324.894531 163.664062 Z M 319.664062 115.882812 C 317.589844 115.882812 314.027344 116.304688 310.511719 117.59375 C 307.277344 118.785156 303.066406 121.089844 301.398438 125.332031 C 299.863281 129.25 299.5625 136.144531 300.640625 142.898438 C 301.84375 150.421875 304.5 156.4375 307.933594 159.398438 C 315.121094 165.601562 323.496094 162.019531 323.992188 161.800781 C 327.296875 160.101562 329.941406 155.796875 331.449219 149.671875 C 332.925781 143.667969 333.082031 136.707031 331.886719 130.578125 C 331.066406 126.382812 328.320312 116.558594 320.566406 115.917969 C 320.3125 115.894531 320.007812 115.882812 319.664062 115.882812 Z M 319.664062 115.882812 " fill-opacity="1" fill-rule="nonzero"/><path fill="#fff2bd" d="M 90.921875 174.449219 L 85.789062 175.238281 C 84.761719 175.398438 83.957031 176.207031 83.796875 177.234375 L 83.003906 182.371094 L 82.214844 177.234375 C 82.054688 176.207031 81.246094 175.398438 80.21875 175.238281 L 75.089844 174.449219 L 80.21875 173.65625 C 81.246094 173.496094 82.054688 172.6875 82.214844 171.660156 L 83.003906 166.523438 L 83.796875 171.660156 C 83.957031 172.6875 84.761719 173.496094 85.789062 173.65625 Z M 90.921875 174.449219 " fill-opacity="1" fill-rule="nonzero"/><path fill="#fff2bd" d="M 75.085938 197.617188 L 70.273438 198.363281 C 69.308594 198.511719 68.550781 199.269531 68.402344 200.234375 L 67.65625 205.054688 L 66.914062 200.234375 C 66.765625 199.269531 66.007812 198.511719 65.042969 198.363281 L 60.226562 197.617188 L 65.042969 196.875 C 66.007812 196.726562 66.765625 195.96875 66.914062 195.003906 L 67.65625 190.183594 L 68.402344 195.003906 C 68.550781 195.96875 69.308594 196.726562 70.273438 196.875 Z M 75.085938 197.617188 " fill-opacity="1" fill-rule="nonzero"/><path fill="#fff2bd" d="M 48.289062 183.339844 L 44.699219 183.894531 C 43.980469 184.003906 43.417969 184.570312 43.304688 185.289062 L 42.75 188.882812 L 42.199219 185.289062 C 42.085938 184.570312 41.523438 184.003906 40.804688 183.894531 L 37.214844 183.339844 L 40.804688 182.785156 C 41.523438 182.675781 42.085938 182.109375 42.199219 181.386719 L 42.75 177.792969 L 43.304688 181.386719 C 43.417969 182.109375 43.980469 182.675781 44.699219 182.785156 Z M 48.289062 183.339844 " fill-opacity="1" fill-rule="nonzero"/><path fill="#fff2bd" d="M 331.851562 187.199219 L 328.226562 187.757812 C 327.5 187.867188 326.933594 188.4375 326.820312 189.164062 L 326.261719 192.792969 L 325.703125 189.164062 C 325.589844 188.4375 325.019531 187.867188 324.292969 187.757812 L 320.667969 187.199219 L 324.292969 186.636719 C 325.019531 186.527344 325.589844 185.957031 325.703125 185.230469 L 326.261719 181.601562 L 326.820312 185.230469 C 326.933594 185.957031 327.5 186.527344 328.226562 186.636719 Z M 331.851562 187.199219 " fill-opacity="1" fill-rule="nonzero"/><path fill="#fff2bd" d="M 300.105469 201.253906 L 296.34375 201.835938 C 295.589844 201.953125 295 202.542969 294.882812 203.296875 L 294.300781 207.066406 L 293.71875 203.296875 C 293.605469 202.542969 293.011719 201.953125 292.257812 201.835938 L 288.496094 201.253906 L 292.257812 200.671875 C 293.011719 200.554688 293.605469 199.964844 293.71875 199.207031 L 294.300781 195.441406 L 294.882812 199.207031 C 295 199.964844 295.589844 200.554688 296.34375 200.671875 Z M 300.105469 201.253906 " fill-opacity="1" fill-rule="nonzero"/><path fill="#102770" d="M 390.734375 79.304688 L 383.648438 82.234375 C 383.648438 82.234375 358.589844 83.792969 355.660156 81.941406 C 355.4375 81.800781 355.210938 81.667969 354.984375 81.53125 C 354.980469 81.527344 354.972656 81.511719 354.964844 81.511719 C 352.496094 80.03125 350.863281 80.472656 348.414062 79.785156 C 348.40625 79.785156 345.921875 80.46875 345.867188 80.472656 C 336.433594 77.84375 329.175781 79.425781 322.878906 82.410156 C 322.871094 82.410156 322.773438 81.285156 322.773438 81.285156 C 317.398438 83.824219 314.007812 86.609375 314.007812 86.609375 L 308.144531 31.535156 C 308.144531 31.535156 308.550781 30.863281 309.355469 29.804688 C 310.527344 41.199219 313.882812 69.917969 318.292969 72.699219 C 320.734375 74.25 325.101562 72.324219 330.765625 70.890625 C 332.925781 70.34375 338.269531 65.988281 338.410156 63.761719 L 339.523438 17.296875 L 339.539062 16.546875 C 343.964844 16.992188 346.265625 18.296875 351.5625 20.707031 C 352.078125 20.941406 352.484375 21.105469 352.816406 21.226562 C 354.109375 21.6875 354.367188 21.511719 356.054688 22.4375 L 354.519531 65.523438 C 354.226562 68.140625 358.570312 70.621094 358.570312 70.621094 C 373.019531 76.816406 384.28125 66.601562 388.855469 62.652344 Z M 390.734375 79.304688 " fill-opacity="0.2" fill-rule="nonzero"/><path fill="#ffffff" d="M 117.582031 115.324219 L 103.921875 115.324219 C 97.316406 115.324219 91.960938 109.964844 91.960938 103.351562 L 91.960938 73.761719 C 91.960938 67.152344 97.316406 61.789062 103.921875 61.789062 L 117.582031 61.789062 Z M 117.582031 115.324219 " fill-opacity="1" fill-rule="nonzero"/><path fill="#ffffff" d="M 251.835938 61.789062 L 265.496094 61.789062 C 272.101562 61.789062 277.453125 67.152344 277.453125 73.761719 L 277.453125 103.351562 C 277.453125 109.964844 272.101562 115.324219 265.496094 115.324219 L 251.835938 115.324219 Z M 251.835938 61.789062 " fill-opacity="1" fill-rule="nonzero"/><path fill="#102770" d="M 117.582031 101.394531 L 117.582031 115.320312 L 107.65625 115.320312 C 98.988281 115.320312 91.964844 108.289062 91.964844 99.613281 L 91.964844 85.683594 C 91.964844 94.359375 98.988281 101.394531 107.65625 101.394531 Z M 117.582031 101.394531 " fill-opacity="0.298" fill-rule="nonzero"/><path fill="#102770" d="M 277.453125 85.683594 L 277.453125 99.613281 C 277.453125 108.289062 270.425781 115.320312 261.765625 115.320312 L 251.835938 115.320312 L 251.835938 101.394531 L 261.765625 101.394531 C 270.425781 101.394531 277.453125 94.359375 277.453125 85.683594 Z M 277.453125 85.683594 " fill-opacity="0.298" fill-rule="nonzero"/><path fill="#102770" d="M 117.582031 117.394531 L 103.921875 117.394531 C 96.1875 117.394531 89.894531 111.09375 89.894531 103.355469 L 89.894531 73.761719 C 89.894531 66.019531 96.1875 59.722656 103.921875 59.722656 L 117.582031 59.722656 C 118.722656 59.722656 119.652344 60.648438 119.652344 61.792969 L 119.652344 115.324219 C 119.652344 116.46875 118.722656 117.394531 117.582031 117.394531 Z M 103.921875 63.863281 C 98.46875 63.863281 94.03125 68.304688 94.03125 73.761719 L 94.03125 103.351562 C 94.03125 108.8125 98.46875 113.25 103.921875 113.25 L 115.511719 113.25 L 115.511719 63.863281 Z M 103.921875 63.863281 " fill-opacity="1" fill-rule="nonzero"/><path fill="#102770" d="M 265.496094 117.394531 L 251.835938 117.394531 C 250.691406 117.394531 249.765625 116.46875 249.765625 115.324219 L 249.765625 61.789062 C 249.765625 60.648438 250.691406 59.71875 251.835938 59.71875 L 265.496094 59.71875 C 273.230469 59.71875 279.523438 66.019531 279.523438 73.761719 L 279.523438 103.351562 C 279.523438 111.09375 273.230469 117.394531 265.496094 117.394531 Z M 253.902344 113.253906 L 265.496094 113.253906 C 270.949219 113.253906 275.386719 108.8125 275.386719 103.355469 L 275.386719 73.761719 C 275.386719 68.304688 270.949219 63.863281 265.496094 63.863281 L 253.902344 63.863281 Z M 253.902344 113.253906 " fill-opacity="1" fill-rule="nonzero"/><g clip-path="url(#79abad14fe)"><path fill="#102770" d="M 184.710938 160.269531 C 184.699219 160.269531 184.6875 160.269531 184.675781 160.269531 C 184.675781 160.269531 184.675781 160.269531 184.671875 160.269531 C 174.695312 160.265625 165.023438 158.765625 155.914062 155.8125 C 148.359375 153.363281 141.128906 149.890625 134.421875 145.496094 C 126.613281 140.382812 119.90625 133.351562 115.023438 125.167969 C 110.183594 117.050781 107.085938 107.714844 106.070312 98.175781 C 104.058594 79.300781 105.503906 51.921875 123.800781 28.660156 C 129.09375 21.933594 135.597656 16.269531 143.128906 11.828125 C 149.140625 8.285156 155.8125 5.511719 162.964844 3.582031 C 174.71875 0.410156 183.753906 0.578125 184.710938 0.605469 C 185.664062 0.578125 194.699219 0.410156 206.453125 3.582031 C 213.605469 5.511719 220.277344 8.285156 226.289062 11.828125 C 233.820312 16.269531 240.324219 21.933594 245.617188 28.660156 C 263.910156 51.917969 265.359375 79.292969 263.351562 98.164062 C 262.335938 107.707031 259.238281 117.042969 254.390625 125.160156 C 249.507812 133.347656 242.796875 140.378906 234.984375 145.492188 C 228.273438 149.886719 221.039062 153.359375 213.480469 155.8125 C 204.367188 158.765625 194.6875 160.265625 184.714844 160.269531 C 184.710938 160.269531 184.710938 160.269531 184.710938 160.269531 Z M 183.984375 4.484375 C 181.703125 4.484375 173.695312 4.695312 163.851562 7.367188 C 153.199219 10.261719 138.132812 16.71875 126.851562 31.066406 C 109.359375 53.296875 107.996094 79.609375 109.929688 97.765625 C 111.898438 116.242188 121.601562 132.457031 136.546875 142.246094 C 150.863281 151.625 167.0625 156.382812 184.691406 156.386719 C 202.328125 156.382812 218.53125 151.625 232.859375 142.242188 C 247.816406 132.449219 257.523438 116.230469 259.488281 97.753906 C 261.421875 79.601562 260.054688 53.292969 242.570312 31.066406 C 231.28125 16.71875 216.214844 10.261719 205.566406 7.367188 C 193.933594 4.210938 184.867188 4.488281 184.777344 4.492188 C 184.730469 4.492188 184.683594 4.492188 184.636719 4.492188 C 184.625 4.492188 184.398438 4.484375 183.984375 4.484375 Z M 183.984375 4.484375 " fill-opacity="1" fill-rule="nonzero"/></g><path fill="#ffffff" d="M 184.675781 158.328125 C 205.898438 158.328125 222.253906 151.507812 233.917969 143.871094 C 249.402344 133.730469 259.417969 116.773438 261.417969 97.960938 C 263.4375 78.976562 261.835938 52.425781 244.09375 29.871094 C 221.546875 1.210938 184.710938 2.558594 184.710938 2.558594 C 184.710938 2.558594 147.871094 1.210938 125.324219 29.867188 C 107.574219 52.429688 105.976562 78.988281 108 97.972656 C 110.003906 116.777344 120.007812 133.734375 135.484375 143.871094 C 147.144531 151.511719 163.492188 158.328125 184.710938 158.328125 Z M 184.675781 158.328125 " fill-opacity="1" fill-rule="nonzero"/><path fill="#102770" d="M 261.417969 97.957031 C 259.414062 116.769531 249.40625 133.730469 233.921875 143.871094 C 222.261719 151.503906 205.910156 158.324219 184.707031 158.328125 L 184.675781 158.328125 C 163.476562 158.324219 147.136719 151.5 135.484375 143.871094 C 120.003906 133.734375 110.003906 116.777344 107.996094 97.972656 C 107.359375 91.976562 107.078125 85.226562 107.5625 78.082031 C 107.671875 79.84375 107.820312 81.558594 107.996094 83.210938 C 110.003906 102.011719 120.003906 118.96875 135.484375 129.109375 C 147.136719 136.742188 163.476562 143.558594 184.675781 143.5625 L 184.707031 143.5625 C 205.910156 143.558594 222.261719 136.742188 233.921875 129.105469 C 249.40625 118.964844 259.414062 102.007812 261.417969 83.199219 C 261.59375 81.542969 261.742188 79.828125 261.851562 78.070312 C 262.335938 85.210938 262.054688 91.964844 261.417969 97.957031 Z M 261.417969 97.957031 " fill-opacity="0.298" fill-rule="nonzero"/><g clip-path="url(#b1040e0919)"><path fill="#102770" d="M 184.710938 160.398438 C 184.699219 160.398438 184.6875 160.398438 184.675781 160.398438 C 184.675781 160.398438 184.675781 160.398438 184.671875 160.398438 C 174.683594 160.394531 164.996094 158.894531 155.875 155.933594 C 148.308594 153.480469 141.070312 150.003906 134.351562 145.605469 C 126.527344 140.480469 119.804688 133.433594 114.914062 125.234375 C 110.0625 117.101562 106.960938 107.75 105.941406 98.191406 C 103.929688 79.292969 105.375 51.875 123.699219 28.582031 C 129 21.839844 135.515625 16.167969 143.066406 11.71875 C 149.085938 8.171875 155.769531 5.390625 162.933594 3.460938 C 174.683594 0.289062 183.726562 0.449219 184.707031 0.480469 C 185.6875 0.453125 194.730469 0.289062 206.484375 3.460938 C 213.644531 5.390625 220.332031 8.171875 226.351562 11.71875 C 233.898438 16.167969 240.414062 21.839844 245.714844 28.582031 C 264.035156 51.871094 265.488281 79.28125 263.476562 98.175781 C 262.457031 107.738281 259.355469 117.089844 254.5 125.226562 C 249.605469 133.429688 242.878906 140.472656 235.050781 145.601562 C 228.332031 150.003906 221.085938 153.476562 213.515625 155.933594 C 204.394531 158.894531 194.699219 160.394531 184.710938 160.402344 C 184.710938 160.398438 184.710938 160.398438 184.710938 160.398438 Z M 183.984375 4.613281 C 181.710938 4.613281 173.710938 4.824219 163.875 7.492188 C 153.246094 10.378906 138.210938 16.828125 126.949219 31.144531 C 109.488281 53.34375 108.125 79.617188 110.054688 97.75 C 112.019531 116.1875 121.703125 132.367188 136.617188 142.140625 C 150.914062 151.503906 167.085938 156.253906 184.691406 156.257812 C 202.296875 156.253906 218.480469 151.503906 232.785156 142.136719 C 247.710938 132.363281 257.398438 116.179688 259.359375 97.738281 C 261.289062 79.609375 259.925781 53.339844 242.464844 31.144531 C 231.171875 16.785156 216.078125 10.339844 205.40625 7.457031 C 193.8125 4.332031 184.871094 4.617188 184.78125 4.621094 C 184.734375 4.621094 184.679688 4.621094 184.632812 4.621094 C 184.621094 4.621094 184.394531 4.613281 183.984375 4.613281 Z M 183.984375 4.613281 " fill-opacity="1" fill-rule="nonzero"/></g><path fill="#102770" d="M 184.679688 145.246094 C 203.847656 145.246094 218.621094 140.078125 229.160156 134.289062 C 243.148438 126.605469 252.195312 113.757812 254 99.503906 C 255.824219 85.117188 254.378906 65 238.347656 47.910156 C 217.984375 26.195312 184.707031 27.214844 184.707031 27.214844 C 184.707031 27.214844 151.429688 26.195312 131.066406 47.910156 C 115.035156 65.003906 113.589844 85.128906 115.417969 99.515625 C 117.226562 113.761719 126.265625 126.609375 140.246094 134.292969 C 150.777344 140.082031 165.542969 145.246094 184.710938 145.246094 Z M 184.679688 145.246094 " fill-opacity="1" fill-rule="nonzero"/><path fill="#102770" d="M 184.710938 147.148438 C 184.699219 147.148438 184.691406 147.148438 184.679688 147.148438 C 184.679688 147.148438 184.675781 147.148438 184.675781 147.148438 C 168.085938 147.144531 152.832031 143.378906 139.328125 135.960938 C 132.246094 132.066406 126.15625 126.710938 121.71875 120.46875 C 117.292969 114.246094 114.460938 107.082031 113.53125 99.753906 C 111.699219 85.320312 113.011719 64.382812 129.679688 46.605469 C 134.484375 41.484375 140.375 37.179688 147.199219 33.808594 C 152.625 31.125 158.652344 29.023438 165.105469 27.5625 C 175.726562 25.160156 183.878906 25.289062 184.710938 25.3125 C 185.539062 25.289062 193.691406 25.160156 204.3125 27.5625 C 210.765625 29.023438 216.792969 31.125 222.21875 33.808594 C 229.042969 37.179688 234.933594 41.484375 239.738281 46.605469 C 256.402344 64.378906 257.71875 85.3125 255.886719 99.742188 C 254.957031 107.074219 252.125 114.238281 247.695312 120.464844 C 243.253906 126.707031 237.164062 132.0625 230.074219 135.957031 C 216.566406 143.378906 201.304688 147.140625 184.714844 147.148438 C 184.710938 147.148438 184.710938 147.148438 184.710938 147.148438 Z M 184.054688 29.113281 C 181.984375 29.113281 174.742188 29.273438 165.84375 31.296875 C 156.222656 33.488281 142.617188 38.375 132.453125 49.210938 C 116.796875 65.90625 115.570312 85.652344 117.300781 99.273438 C 119.058594 113.105469 127.753906 125.261719 141.160156 132.625 C 154.097656 139.734375 168.746094 143.339844 184.695312 143.34375 C 200.644531 143.339844 215.300781 139.734375 228.246094 132.621094 C 241.660156 125.253906 250.359375 113.09375 252.117188 99.261719 C 253.84375 85.644531 252.617188 65.902344 236.964844 49.210938 C 226.773438 38.34375 213.125 33.457031 203.472656 31.273438 C 192.964844 28.894531 184.847656 29.113281 184.765625 29.117188 C 184.726562 29.117188 184.6875 29.117188 184.648438 29.117188 C 184.636719 29.117188 184.429688 29.113281 184.054688 29.113281 Z M 184.054688 29.113281 " fill-opacity="1" fill-rule="nonzero"/><g mask="url(#d47c940e00)"><g transform="matrix(1, 0, 0, 1, 124, 37)"><g clip-path="url(#013a922fe2)"><path fill="#ffffff" d="M 7.480469 41.363281 C 4.707031 43.167969 1.136719 40.777344 1.722656 37.519531 C 1.917969 36.429688 2.164062 35.359375 2.4375 34.292969 C 3.382812 30.863281 4.792969 27.597656 6.589844 24.542969 C 8.375 21.484375 10.570312 18.652344 13.074219 16.078125 C 15.585938 13.511719 18.46875 11.269531 21.53125 9.292969 C 26.988281 5.460938 32.988281 3.0625 37.375 1.660156 C 40.902344 0.53125 44.714844 2.257812 46.203125 5.652344 C 47.746094 9.171875 46.28125 13.292969 42.851562 15.027344 C 40.839844 16.042969 38.804688 17.136719 37.582031 17.976562 C 35.203125 19.410156 32.945312 21.015625 30.726562 22.679688 C 28.507812 24.347656 26.351562 26.125 24.203125 27.976562 C 22.027344 29.800781 19.839844 31.679688 17.546875 33.578125 C 15.261719 35.484375 12.886719 37.421875 10.347656 39.386719 C 9.617188 39.941406 8.585938 40.640625 7.480469 41.363281 Z M 7.480469 41.363281 " fill-opacity="1" fill-rule="nonzero"/><g clip-path="url(#85a8b7d0f0)"><path fill="#102770" d="M 5.425781 42.59375 C 4.589844 42.59375 3.757812 42.34375 3.011719 41.851562 C 1.53125 40.867188 0.808594 39.164062 1.125 37.410156 C 1.304688 36.398438 1.542969 35.328125 1.851562 34.140625 C 2.792969 30.710938 4.210938 27.382812 6.0625 24.234375 C 7.835938 21.203125 10.046875 18.316406 12.640625 15.652344 C 15.007812 13.230469 17.882812 10.921875 21.1875 8.785156 C 26.804688 4.847656 32.988281 2.425781 37.1875 1.082031 C 41.023438 -0.144531 45.140625 1.714844 46.757812 5.410156 C 48.433594 9.230469 46.835938 13.695312 43.125 15.570312 C 40.710938 16.789062 38.960938 17.769531 37.925781 18.480469 C 37.914062 18.484375 37.902344 18.492188 37.894531 18.496094 C 35.835938 19.742188 33.734375 21.179688 31.089844 23.167969 C 29.117188 24.648438 27.054688 26.324219 24.597656 28.4375 C 23.804688 29.101562 23.019531 29.769531 22.226562 30.441406 C 20.835938 31.617188 19.398438 32.832031 17.933594 34.046875 C 15.222656 36.304688 12.929688 38.15625 10.714844 39.867188 C 10.046875 40.382812 9.070312 41.054688 7.8125 41.875 C 7.074219 42.351562 6.25 42.59375 5.425781 42.59375 Z M 39.582031 1.921875 C 38.910156 1.921875 38.230469 2.023438 37.558594 2.238281 C 33.433594 3.554688 27.367188 5.933594 21.878906 9.789062 C 21.871094 9.792969 21.863281 9.796875 21.859375 9.800781 C 18.621094 11.890625 15.8125 14.144531 13.507812 16.503906 C 10.988281 19.09375 8.835938 21.902344 7.113281 24.851562 C 5.3125 27.910156 3.9375 31.140625 3.023438 34.457031 C 2.730469 35.605469 2.496094 36.644531 2.320312 37.628906 C 2.09375 38.894531 2.617188 40.125 3.683594 40.839844 C 4.75 41.546875 6.074219 41.550781 7.148438 40.851562 C 8.378906 40.050781 9.332031 39.394531 9.972656 38.902344 C 12.171875 37.199219 14.457031 35.359375 17.152344 33.109375 C 18.617188 31.898438 20.050781 30.683594 21.4375 29.507812 C 22.234375 28.835938 23.023438 28.167969 23.808594 27.507812 C 26.28125 25.378906 28.363281 23.6875 30.359375 22.191406 C 33.035156 20.183594 35.160156 18.726562 37.25 17.460938 C 38.332031 16.722656 40.125 15.722656 42.574219 14.484375 C 45.710938 12.898438 47.058594 9.128906 45.644531 5.898438 C 44.558594 3.421875 42.148438 1.921875 39.582031 1.921875 Z M 7.480469 41.363281 Z M 7.480469 41.363281 " fill-opacity="1" fill-rule="nonzero"/></g></g></g></g><g mask="url(#f81050095d)"><g transform="matrix(1, 0, 0, 1, 177, 32)"><g clip-path="url(#998ca2c84a)"><path fill="#ffffff" d="M 7.800781 16.207031 C 7.800781 16.207031 2.441406 15.199219 1.742188 8.203125 C 1.046875 1.207031 10.363281 0.820312 13.9375 1.675781 C 17.507812 2.527344 24.109375 2.140625 25.273438 7.738281 C 26.4375 13.332031 23.175781 20.484375 7.800781 16.207031 Z M 7.800781 16.207031 " fill-opacity="1" fill-rule="nonzero"/><g clip-path="url(#5e648ab22f)"><path fill="#102770" d="M 16.019531 18.113281 C 13.789062 18.113281 11.042969 17.742188 7.65625 16.800781 C 7.4375 16.753906 6.082031 16.433594 4.65625 15.308594 C 3.261719 14.207031 1.519531 12.089844 1.136719 8.265625 C 0.921875 6.09375 1.566406 4.332031 3.0625 3.027344 C 6.167969 0.308594 11.824219 0.542969 14.074219 1.082031 C 14.757812 1.246094 15.582031 1.367188 16.449219 1.492188 C 19.992188 2.007812 24.847656 2.714844 25.867188 7.613281 C 26.53125 10.8125 25.75 13.742188 23.71875 15.644531 C 22.363281 16.910156 20.023438 18.113281 16.019531 18.113281 Z M 10.742188 1.949219 C 8.328125 1.949219 5.539062 2.476562 3.863281 3.945312 C 2.683594 4.972656 2.171875 6.386719 2.347656 8.140625 C 2.992188 14.570312 7.714844 15.570312 7.914062 15.609375 C 7.929688 15.613281 7.949219 15.617188 7.964844 15.621094 C 16.886719 18.101562 21.003906 16.519531 22.886719 14.753906 C 24.601562 13.148438 25.253906 10.632812 24.675781 7.859375 C 23.832031 3.792969 19.816406 3.210938 16.273438 2.695312 C 15.378906 2.566406 14.53125 2.441406 13.792969 2.265625 C 12.972656 2.070312 11.902344 1.949219 10.742188 1.949219 Z M 10.742188 1.949219 " fill-opacity="1" fill-rule="nonzero"/></g></g></g></g><path fill="#102770" d="M 135.449219 43.152344 C 134.539062 43.152344 133.726562 42.503906 133.546875 41.574219 C 131.96875 33.320312 126.398438 28.773438 126.339844 28.730469 C 125.503906 28.0625 125.367188 26.839844 126.03125 26.003906 C 126.695312 25.164062 127.910156 25.019531 128.75 25.683594 C 129.027344 25.902344 135.5 31.113281 137.359375 40.84375 C 137.558594 41.898438 136.871094 42.914062 135.816406 43.117188 C 135.695312 43.140625 135.570312 43.152344 135.449219 43.152344 Z M 135.449219 43.152344 " fill-opacity="1" fill-rule="nonzero"/><path fill="#102770" d="M 233.964844 43.152344 C 233.84375 43.152344 233.722656 43.140625 233.597656 43.113281 C 232.546875 42.914062 231.855469 41.894531 232.054688 40.84375 C 233.917969 31.113281 240.390625 25.902344 240.664062 25.683594 C 241.503906 25.019531 242.726562 25.164062 243.390625 26.003906 C 244.054688 26.84375 243.910156 28.0625 243.074219 28.730469 C 242.992188 28.796875 237.441406 33.339844 235.871094 41.574219 C 235.691406 42.503906 234.878906 43.152344 233.964844 43.152344 Z M 233.964844 43.152344 " fill-opacity="1" fill-rule="nonzero"/><path fill="#ffffff" d="M 203.242188 95.835938 C 199.917969 95.097656 196.097656 91.660156 196.097656 91.660156 C 199.425781 99.882812 197.824219 112.40625 197.824219 112.40625 C 200.78125 110.929688 203.242188 95.835938 203.242188 95.835938 Z M 203.242188 95.835938 " fill-opacity="1" fill-rule="nonzero"/><path fill="#ffffff" d="M 168.265625 95.835938 C 168.265625 95.835938 170.730469 110.929688 173.6875 112.40625 C 173.6875 112.40625 172.082031 99.882812 175.410156 91.660156 C 175.410156 91.660156 171.59375 95.097656 168.265625 95.835938 Z M 168.265625 95.835938 " fill-opacity="1" fill-rule="nonzero"/><g clip-path="url(#02098dd66d)"><path fill="#ffffff" d="M 161.757812 93.355469 C 162.191406 93.636719 162.65625 93.859375 163.148438 94.019531 C 164.226562 94.378906 165.371094 94.40625 166.53125 94.105469 C 168.394531 93.621094 169.742188 92.53125 171.300781 91.269531 C 174.117188 88.996094 177.625 86.15625 185.699219 85.726562 L 185.808594 85.726562 C 193.882812 86.15625 197.390625 88.996094 200.207031 91.269531 C 201.769531 92.53125 203.117188 93.621094 204.980469 94.105469 C 206.132812 94.40625 207.285156 94.378906 208.359375 94.023438 C 208.847656 93.859375 209.316406 93.636719 209.746094 93.359375 C 212.292969 91.742188 213.753906 88.402344 213.390625 85.058594 C 212.835938 79.984375 209.765625 79.597656 209.632812 79.582031 L 207.859375 79.390625 L 208.902344 77.957031 C 208.929688 77.921875 211.726562 74.027344 210.101562 70.300781 C 209.164062 68.144531 208.007812 67.265625 206.113281 67.265625 C 205.023438 67.265625 203.695312 67.554688 202.058594 68.148438 C 200.800781 68.601562 199.378906 69.230469 197.710938 70.070312 C 189.230469 74.332031 186.089844 74.457031 185.761719 74.457031 C 185.417969 74.457031 182.277344 74.332031 173.796875 70.070312 C 172.128906 69.230469 170.707031 68.601562 169.453125 68.148438 C 167.8125 67.554688 166.488281 67.265625 165.394531 67.265625 C 163.5 67.265625 162.34375 68.144531 161.410156 70.296875 C 159.773438 74.050781 162.578125 77.917969 162.605469 77.957031 L 163.695312 79.433594 L 161.863281 79.582031 C 161.742188 79.597656 158.671875 79.984375 158.117188 85.058594 C 157.753906 88.402344 159.214844 91.742188 161.757812 93.355469 Z M 204.722656 71.6875 C 204.722656 71.6875 205.402344 86.039062 193.730469 80.792969 C 193.730469 80.792969 196.753906 73.738281 204.722656 71.6875 Z M 166.789062 71.6875 C 174.753906 73.738281 177.777344 80.792969 177.777344 80.792969 C 166.109375 86.039062 166.789062 71.6875 166.789062 71.6875 Z M 166.789062 71.6875 " fill-opacity="1" fill-rule="nonzero"/></g><g clip-path="url(#481a9bba09)"><path fill="#ffffff" d="M 210.320312 95.378906 C 210.125 95.488281 209.925781 95.585938 209.714844 95.679688 C 209.703125 98.289062 209.195312 107.292969 203.09375 113.933594 C 198.960938 118.429688 193.140625 120.863281 185.796875 121.160156 L 185.753906 121.164062 L 185.710938 121.160156 C 178.367188 120.863281 172.550781 118.429688 168.417969 113.933594 C 162.3125 107.292969 161.804688 98.289062 161.792969 95.679688 C 161.585938 95.589844 161.382812 95.488281 161.1875 95.378906 C 160.339844 95.933594 158.445312 97.765625 159.578125 102.726562 C 160.914062 108.585938 166.144531 122.34375 185.753906 123.53125 C 205.359375 122.34375 210.59375 108.585938 211.933594 102.726562 C 213.0625 97.765625 211.167969 95.933594 210.320312 95.378906 Z M 210.320312 95.378906 " fill-opacity="1" fill-rule="nonzero"/></g><g clip-path="url(#89ef9758b2)"><path fill="#ffffff" d="M 185.75 72.410156 C 185.785156 72.410156 188.667969 72.324219 196.785156 68.242188 C 197.78125 67.742188 198.679688 67.328125 199.527344 66.960938 C 197.53125 65.886719 193.300781 64.285156 185.753906 64.285156 C 178.132812 64.285156 173.933594 65.878906 171.960938 66.953125 C 172.816406 67.324219 173.71875 67.734375 174.722656 68.242188 C 182.84375 72.324219 185.722656 72.410156 185.75 72.410156 Z M 185.75 72.410156 " fill-opacity="1" fill-rule="nonzero"/></g><g fill="#ffffff" fill-opacity="1"><g transform="translate(408.484844, 155.967282)"><g><path d="M 4.09375 -40.921875 L 43.375 -80.609375 L 56.0625 -68.0625 L 29.046875 -41.0625 L 56.0625 -14.046875 L 43.515625 -1.5 Z M 4.09375 -40.921875 "/></g></g></g></svg>