<svg xmlns="http://www.w3.org/2000/svg" xmlns:xlink="http://www.w3.org/1999/xlink" width="527" zoomAndPan="magnify" viewBox="0 0 395.25 231" height="308" preserveAspectRatio="xMidYMid meet" version="1.0"><defs><filter x="0%" y="0%" width="100%" height="100%" id="3da59be525"><feColorMatrix values="0 0 0 0 1 0 0 0 0 1 0 0 0 0 1 0 0 0 1 0" color-interpolation-filters="sRGB"/></filter><clipPath id="a2d8861a15"><path d="M 0 0.21875 L 394.5 0.21875 L 394.5 230.78125 L 0 230.78125 Z M 0 0.21875 " clip-rule="nonzero"/></clipPath><clipPath id="b7dc6e8b64"><path d="M 0.585938 155 L 368 155 L 368 226 L 0.585938 226 Z M 0.585938 155 " clip-rule="nonzero"/></clipPath><clipPath id="3cbd7ff5ff"><path d="M 73 191 L 129 191 L 129 230.78125 L 73 230.78125 Z M 73 191 " clip-rule="nonzero"/></clipPath><clipPath id="b916f2b29f"><path d="M 305 14 L 394.339844 14 L 394.339844 89 L 305 89 Z M 305 14 " clip-rule="nonzero"/></clipPath><clipPath id="ef2adde924"><path d="M 105 0.359375 L 264 0.359375 L 264 161 L 105 161 Z M 105 0.359375 " clip-rule="nonzero"/></clipPath><clipPath id="6119d450aa"><path d="M 105 0.359375 L 264 0.359375 L 264 161 L 105 161 Z M 105 0.359375 " clip-rule="nonzero"/></clipPath><mask id="b6b8b0dc59"><g filter="url(#3da59be525)"><rect x="-39.525" width="474.3" fill="#000000" y="-23.1" height="277.2" fill-opacity="0.4"/></g></mask><clipPath id="1b94b2eda0"><path d="M 0.804688 0.585938 L 47.273438 0.585938 L 47.273438 42.746094 L 0.804688 42.746094 Z M 0.804688 0.585938 " clip-rule="nonzero"/></clipPath><clipPath id="cd41766b80"><rect x="0" width="48" y="0" height="43"/></clipPath><mask id="a4976fd6b5"><g filter="url(#3da59be525)"><rect x="-39.525" width="474.3" fill="#000000" y="-23.1" height="277.2" fill-opacity="0.4"/></g></mask><clipPath id="b5236d42a2"><path d="M 1 1 L 25.894531 1 L 25.894531 18 L 1 18 Z M 1 1 " clip-rule="nonzero"/></clipPath><clipPath id="81168a1f39"><path d="M 0.503906 0.796875 L 25.894531 0.796875 L 25.894531 18.285156 L 0.503906 18.285156 Z M 0.503906 0.796875 " clip-rule="nonzero"/></clipPath><clipPath id="43bd996e9b"><rect x="0" width="26" y="0" height="19"/></clipPath><clipPath id="a668548560"><path d="M 157.351562 67 L 213.496094 67 L 213.496094 95 L 157.351562 95 Z M 157.351562 67 " clip-rule="nonzero"/></clipPath><clipPath id="f745f6cb48"><path d="M 158 95 L 212 95 L 212 123.457031 L 158 123.457031 Z M 158 95 " clip-rule="nonzero"/></clipPath><clipPath id="95ba2b7eae"><path d="M 171 64.320312 L 200 64.320312 L 200 73 L 171 73 Z M 171 64.320312 " clip-rule="nonzero"/></clipPath></defs><g clip-path="url(#a2d8861a15)"><path fill="#ffffff" d="M 0 0.21875 L 395.25 0.21875 L 395.25 238.265625 L 0 238.265625 Z M 0 0.21875 " fill-opacity="1" fill-rule="nonzero"/><path fill="#ffffff" d="M 0 0.21875 L 394.5 0.21875 L 394.5 230.78125 L 0 230.78125 Z M 0 0.21875 " fill-opacity="1" fill-rule="nonzero"/></g><g clip-path="url(#b7dc6e8b64)"><path fill="#102770" d="M 367.664062 190.273438 C 367.664062 190.847656 367.589844 191.421875 367.441406 191.996094 C 367.292969 192.566406 367.074219 193.140625 366.78125 193.710938 C 366.484375 194.285156 366.117188 194.855469 365.675781 195.421875 C 365.234375 195.992188 364.722656 196.558594 364.136719 197.121094 C 363.550781 197.683594 362.894531 198.246094 362.164062 198.800781 C 361.433594 199.359375 360.632812 199.914062 359.761719 200.464844 C 358.886719 201.011719 357.945312 201.558594 356.933594 202.097656 C 355.921875 202.640625 354.839844 203.175781 353.691406 203.707031 C 352.542969 204.238281 351.324219 204.761719 350.042969 205.28125 C 348.757812 205.800781 347.40625 206.316406 345.992188 206.820312 C 344.574219 207.328125 343.09375 207.828125 341.550781 208.320312 C 340.007812 208.8125 338.398438 209.300781 336.730469 209.777344 C 335.0625 210.253906 333.332031 210.726562 331.542969 211.1875 C 329.753906 211.648438 327.90625 212.101562 326.003906 212.542969 C 324.097656 212.988281 322.136719 213.425781 320.117188 213.847656 C 318.101562 214.273438 316.03125 214.691406 313.90625 215.097656 C 311.78125 215.503906 309.609375 215.898438 307.382812 216.285156 C 305.15625 216.671875 302.882812 217.046875 300.5625 217.410156 C 298.238281 217.777344 295.871094 218.128906 293.457031 218.472656 C 291.046875 218.8125 288.589844 219.144531 286.09375 219.464844 C 283.597656 219.785156 281.058594 220.089844 278.484375 220.386719 C 275.90625 220.679688 273.292969 220.964844 270.644531 221.234375 C 267.996094 221.507812 265.3125 221.765625 262.597656 222.011719 C 259.882812 222.253906 257.136719 222.488281 254.363281 222.707031 C 251.585938 222.929688 248.785156 223.136719 245.957031 223.328125 C 243.128906 223.523438 240.277344 223.703125 237.402344 223.871094 C 234.527344 224.035156 231.636719 224.1875 228.722656 224.328125 C 225.808594 224.46875 222.878906 224.59375 219.933594 224.707031 C 216.984375 224.820312 214.027344 224.917969 211.054688 225 C 208.085938 225.085938 205.105469 225.15625 202.117188 225.210938 C 199.125 225.269531 196.132812 225.308594 193.132812 225.339844 C 190.132812 225.367188 187.128906 225.382812 184.125 225.382812 C 181.121094 225.382812 178.121094 225.367188 175.121094 225.339844 C 172.121094 225.308594 169.125 225.269531 166.136719 225.210938 C 163.144531 225.15625 160.167969 225.085938 157.195312 225 C 154.222656 224.917969 151.265625 224.820312 148.320312 224.707031 C 145.371094 224.59375 142.441406 224.46875 139.53125 224.328125 C 136.617188 224.1875 133.722656 224.035156 130.847656 223.871094 C 127.972656 223.703125 125.121094 223.523438 122.292969 223.328125 C 119.464844 223.136719 116.664062 222.929688 113.886719 222.707031 C 111.113281 222.488281 108.367188 222.253906 105.652344 222.011719 C 102.9375 221.765625 100.253906 221.507812 97.605469 221.234375 C 94.957031 220.964844 92.34375 220.679688 89.769531 220.386719 C 87.191406 220.089844 84.65625 219.785156 82.15625 219.464844 C 79.660156 219.144531 77.203125 218.8125 74.792969 218.472656 C 72.378906 218.128906 70.011719 217.777344 67.691406 217.410156 C 65.367188 217.046875 63.09375 216.671875 60.867188 216.285156 C 58.644531 215.898438 56.46875 215.503906 54.34375 215.097656 C 52.222656 214.691406 50.148438 214.273438 48.132812 213.847656 C 46.117188 213.425781 44.15625 212.988281 42.25 212.542969 C 40.34375 212.101562 38.496094 211.648438 36.707031 211.1875 C 34.917969 210.726562 33.1875 210.253906 31.519531 209.777344 C 29.851562 209.300781 28.246094 208.8125 26.699219 208.320312 C 25.15625 207.828125 23.675781 207.328125 22.257812 206.820312 C 20.84375 206.316406 19.492188 205.800781 18.210938 205.28125 C 16.925781 204.761719 15.707031 204.238281 14.558594 203.707031 C 13.410156 203.175781 12.328125 202.640625 11.316406 202.097656 C 10.304688 201.558594 9.363281 201.011719 8.492188 200.464844 C 7.617188 199.914062 6.816406 199.359375 6.089844 198.800781 C 5.359375 198.246094 4.699219 197.683594 4.113281 197.121094 C 3.527344 196.558594 3.015625 195.992188 2.574219 195.421875 C 2.132812 194.855469 1.765625 194.285156 1.472656 193.710938 C 1.175781 193.140625 0.957031 192.566406 0.808594 191.996094 C 0.660156 191.421875 0.585938 190.847656 0.585938 190.273438 C 0.585938 189.695312 0.660156 189.121094 0.808594 188.546875 C 0.957031 187.976562 1.175781 187.402344 1.472656 186.832031 C 1.765625 186.257812 2.132812 185.6875 2.574219 185.121094 C 3.015625 184.550781 3.527344 183.984375 4.113281 183.421875 C 4.699219 182.859375 5.359375 182.296875 6.089844 181.742188 C 6.816406 181.183594 7.617188 180.628906 8.492188 180.078125 C 9.363281 179.53125 10.304688 178.984375 11.316406 178.445312 C 12.328125 177.902344 13.410156 177.367188 14.558594 176.835938 C 15.707031 176.304688 16.925781 175.78125 18.210938 175.261719 C 19.492188 174.742188 20.84375 174.226562 22.257812 173.722656 C 23.675781 173.214844 25.15625 172.714844 26.699219 172.222656 C 28.246094 171.730469 29.851562 171.242188 31.519531 170.765625 C 33.1875 170.289062 34.917969 169.816406 36.707031 169.355469 C 38.496094 168.894531 40.34375 168.441406 42.25 168 C 44.15625 167.554688 46.117188 167.121094 48.132812 166.695312 C 50.148438 166.269531 52.222656 165.851562 54.34375 165.445312 C 56.46875 165.039062 58.644531 164.644531 60.867188 164.257812 C 63.09375 163.871094 65.367188 163.496094 67.691406 163.132812 C 70.011719 162.765625 72.378906 162.414062 74.792969 162.070312 C 77.203125 161.730469 79.660156 161.398438 82.15625 161.078125 C 84.65625 160.761719 87.191406 160.453125 89.769531 160.15625 C 92.34375 159.863281 94.957031 159.578125 97.605469 159.308594 C 100.253906 159.035156 102.9375 158.777344 105.652344 158.53125 C 108.367188 158.289062 111.113281 158.054688 113.886719 157.835938 C 116.664062 157.613281 119.464844 157.40625 122.292969 157.214844 C 125.121094 157.019531 127.972656 156.839844 130.847656 156.675781 C 133.722656 156.507812 136.617188 156.355469 139.53125 156.214844 C 142.441406 156.074219 145.371094 155.949219 148.320312 155.835938 C 151.265625 155.722656 154.222656 155.625 157.195312 155.542969 C 160.167969 155.457031 163.144531 155.386719 166.136719 155.332031 C 169.125 155.273438 172.121094 155.234375 175.121094 155.203125 C 178.121094 155.175781 181.121094 155.160156 184.125 155.160156 C 187.128906 155.160156 190.132812 155.175781 193.132812 155.203125 C 196.132812 155.234375 199.125 155.273438 202.117188 155.332031 C 205.105469 155.386719 208.085938 155.457031 211.054688 155.542969 C 214.027344 155.625 216.984375 155.722656 219.933594 155.835938 C 222.878906 155.949219 225.808594 156.074219 228.722656 156.214844 C 231.636719 156.355469 234.527344 156.507812 237.402344 156.675781 C 240.277344 156.839844 243.128906 157.019531 245.957031 157.214844 C 248.785156 157.40625 251.585938 157.613281 254.363281 157.835938 C 257.136719 158.054688 259.882812 158.289062 262.597656 158.53125 C 265.3125 158.777344 267.996094 159.035156 270.644531 159.308594 C 273.292969 159.578125 275.90625 159.863281 278.484375 160.15625 C 281.058594 160.453125 283.597656 160.761719 286.09375 161.078125 C 288.589844 161.398438 291.046875 161.730469 293.457031 162.070312 C 295.871094 162.414062 298.238281 162.765625 300.5625 163.132812 C 302.882812 163.496094 305.15625 163.871094 307.382812 164.257812 C 309.609375 164.644531 311.78125 165.039062 313.90625 165.445312 C 316.03125 165.851562 318.101562 166.269531 320.117188 166.695312 C 322.136719 167.121094 324.097656 167.554688 326.003906 168 C 327.90625 168.441406 329.753906 168.894531 331.542969 169.355469 C 333.332031 169.816406 335.0625 170.289062 336.730469 170.765625 C 338.398438 171.242188 340.007812 171.730469 341.550781 172.222656 C 343.09375 172.714844 344.574219 173.214844 345.992188 173.722656 C 347.40625 174.226562 348.757812 174.742188 350.042969 175.261719 C 351.324219 175.78125 352.542969 176.304688 353.691406 176.835938 C 354.839844 177.367188 355.921875 177.902344 356.933594 178.445312 C 357.945312 178.984375 358.886719 179.53125 359.761719 180.078125 C 360.632812 180.628906 361.433594 181.183594 362.164062 181.742188 C 362.894531 182.296875 363.550781 182.859375 364.136719 183.421875 C 364.722656 183.984375 365.234375 184.550781 365.675781 185.121094 C 366.117188 185.6875 366.484375 186.257812 366.78125 186.832031 C 367.074219 187.402344 367.292969 187.976562 367.441406 188.546875 C 367.589844 189.121094 367.664062 189.695312 367.664062 190.273438 Z M 367.664062 190.273438 " fill-opacity="1" fill-rule="nonzero"/></g><path fill="#ffffff" d="M 239.273438 207.609375 L 128.691406 207.609375 C 117.976562 207.609375 109.285156 198.914062 109.285156 188.1875 L 109.285156 140.164062 C 109.285156 129.4375 117.976562 120.738281 128.691406 120.738281 L 239.277344 120.738281 C 249.996094 120.738281 258.683594 129.4375 258.683594 140.164062 L 258.683594 188.1875 C 258.683594 198.914062 249.992188 207.609375 239.273438 207.609375 Z M 239.273438 207.609375 " fill-opacity="1" fill-rule="nonzero"/><path fill="#102770" d="M 239.273438 207.9375 L 128.691406 207.9375 C 117.8125 207.9375 108.957031 199.078125 108.957031 188.1875 L 108.957031 140.164062 C 108.957031 129.273438 117.8125 120.410156 128.691406 120.410156 L 239.277344 120.410156 C 250.160156 120.410156 259.011719 129.273438 259.011719 140.164062 L 259.011719 188.1875 C 259.011719 199.078125 250.15625 207.9375 239.273438 207.9375 Z M 128.691406 121.070312 C 118.175781 121.070312 109.613281 129.636719 109.613281 140.167969 L 109.613281 188.1875 C 109.613281 198.714844 118.171875 207.285156 128.691406 207.285156 L 239.277344 207.285156 C 249.796875 207.285156 258.355469 198.71875 258.355469 188.1875 L 258.355469 140.167969 C 258.355469 129.636719 249.796875 121.070312 239.277344 121.070312 Z M 128.691406 121.070312 " fill-opacity="1" fill-rule="nonzero"/><path fill="#102770" d="M 230.738281 197.242188 L 141.890625 197.242188 C 133.730469 197.242188 127.117188 190.621094 127.117188 182.453125 L 127.117188 145.898438 C 127.117188 137.730469 133.730469 131.109375 141.890625 131.109375 L 230.738281 131.109375 C 238.898438 131.109375 245.515625 137.730469 245.515625 145.898438 L 245.515625 182.453125 C 245.515625 190.621094 238.898438 197.242188 230.738281 197.242188 Z M 230.738281 197.242188 " fill-opacity="0.298" fill-rule="nonzero"/><path fill="#102770" d="M 239.273438 209.679688 L 128.691406 209.679688 C 116.855469 209.679688 107.222656 200.039062 107.222656 188.1875 L 107.222656 140.167969 C 107.222656 128.316406 116.855469 118.675781 128.691406 118.675781 L 239.277344 118.675781 C 251.117188 118.675781 260.746094 128.316406 260.746094 140.167969 L 260.746094 188.1875 C 260.746094 200.039062 251.113281 209.679688 239.273438 209.679688 Z M 128.691406 122.808594 C 119.132812 122.808594 111.351562 130.59375 111.351562 140.167969 L 111.351562 188.1875 C 111.351562 197.757812 119.132812 205.542969 128.691406 205.542969 L 239.277344 205.542969 C 248.839844 205.542969 256.617188 197.757812 256.617188 188.1875 L 256.617188 140.167969 C 256.617188 130.59375 248.839844 122.808594 239.277344 122.808594 Z M 128.691406 122.808594 " fill-opacity="1" fill-rule="nonzero"/><path fill="#ffffff" d="M 256.691406 194.664062 C 256.554688 194.667969 256.410156 194.675781 256.261719 194.679688 L 258.878906 204.035156 C 247.660156 207.964844 236.222656 211.046875 224.65625 213.296875 C 209.210938 216.304688 193.539062 217.804688 177.855469 217.804688 C 166.5625 217.804688 155.273438 217.023438 144.058594 215.460938 C 132.125 213.804688 120.28125 211.261719 108.621094 207.832031 L 95.726562 204.035156 C 95.726562 204.035156 96.671875 199.957031 98.472656 194.21875 C 101.621094 184.148438 107.386719 168.957031 115.234375 161.667969 C 117.234375 159.804688 119.277344 158.195312 121.335938 156.8125 C 143.832031 141.710938 168.320312 153.625 168.320312 153.625 L 200.394531 153.625 C 200.394531 153.625 206.972656 142.402344 258.601562 144.628906 C 259.1875 144.652344 259.78125 144.679688 260.378906 144.707031 C 291.734375 146.210938 308.816406 137.371094 308.816406 137.371094 L 329.199219 149.828125 L 332.359375 151.757812 C 332.359375 151.757812 324.652344 192.078125 257.753906 194.625 C 257.398438 194.640625 257.046875 194.652344 256.691406 194.664062 Z M 256.691406 194.664062 " fill-opacity="1" fill-rule="nonzero"/><path fill="#102770" d="M 177.855469 218.132812 C 166.574219 218.132812 155.191406 217.34375 144.011719 215.785156 C 132.058594 214.125 120.121094 211.554688 108.527344 208.144531 L 95.335938 204.261719 L 95.40625 203.960938 C 95.414062 203.921875 96.375 199.804688 98.15625 194.117188 C 101.582031 183.160156 107.289062 168.597656 115.007812 161.421875 C 116.9375 159.625 119.003906 157.980469 121.148438 156.539062 C 126.316406 153.066406 132.023438 150.742188 138.105469 149.621094 C 142.96875 148.722656 148.082031 148.589844 153.300781 149.230469 C 161.679688 150.253906 167.679688 152.964844 168.390625 153.296875 L 200.21875 153.296875 C 200.703125 152.644531 202.914062 150.203125 210.035156 147.976562 C 214.757812 146.503906 220.699219 145.421875 227.691406 144.765625 C 236.417969 143.949219 246.820312 143.789062 258.609375 144.296875 C 259.179688 144.320312 259.761719 144.347656 260.34375 144.375 L 260.390625 144.378906 C 276.53125 145.152344 288.796875 143.125 296.246094 141.289062 C 304.3125 139.300781 308.621094 137.101562 308.660156 137.078125 L 308.824219 136.992188 L 308.984375 137.089844 L 329.367188 149.546875 L 332.71875 151.59375 L 332.675781 151.816406 C 332.65625 151.921875 332.167969 154.421875 330.402344 158.234375 C 328.777344 161.742188 325.71875 167.058594 320.371094 172.464844 C 314.367188 178.53125 306.753906 183.476562 297.75 187.152344 C 286.511719 191.746094 273.058594 194.367188 257.761719 194.953125 C 257.410156 194.96875 257.058594 194.980469 256.699219 194.992188 L 256.6875 194.992188 L 259.273438 204.242188 L 258.984375 204.34375 C 247.851562 208.242188 236.320312 211.363281 224.714844 213.617188 C 209.335938 216.613281 193.570312 218.132812 177.855469 218.132812 Z M 96.117188 203.808594 L 108.714844 207.511719 C 120.273438 210.914062 132.183594 213.480469 144.101562 215.136719 C 155.25 216.6875 166.605469 217.476562 177.855469 217.476562 C 193.527344 217.476562 209.253906 215.960938 224.59375 212.972656 C 236.066406 210.742188 247.464844 207.664062 258.476562 203.828125 L 255.835938 194.367188 L 256.683594 194.335938 C 257.035156 194.324219 257.386719 194.3125 257.734375 194.296875 C 292.160156 192.984375 310.527344 181.464844 319.875 172.035156 C 329.164062 162.664062 331.628906 153.441406 331.984375 151.914062 L 329.027344 150.105469 L 308.796875 137.742188 C 307.925781 138.164062 303.679688 140.132812 296.433594 141.917969 C 288.9375 143.769531 276.597656 145.8125 260.359375 145.03125 L 260.316406 145.03125 C 259.734375 145.003906 259.15625 144.976562 258.585938 144.953125 C 232.117188 143.8125 217.78125 146.28125 210.414062 148.550781 C 202.433594 151.007812 200.691406 153.765625 200.675781 153.792969 L 200.582031 153.953125 L 168.242188 153.953125 L 168.175781 153.921875 C 168.113281 153.890625 161.980469 150.949219 153.199219 149.878906 C 145.109375 148.894531 133.046875 149.34375 121.515625 157.082031 C 119.402344 158.507812 117.359375 160.128906 115.453125 161.90625 C 107.839844 168.980469 102.1875 183.433594 98.785156 194.316406 C 97.285156 199.097656 96.371094 202.761719 96.117188 203.808594 Z M 96.117188 203.808594 " fill-opacity="1" fill-rule="nonzero"/><path fill="#102770" d="M 258.878906 204.035156 C 247.660156 207.964844 236.222656 211.046875 224.65625 213.296875 C 209.210938 216.304688 193.539062 217.804688 177.855469 217.804688 C 166.5625 217.804688 155.273438 217.023438 144.058594 215.460938 C 132.125 213.804688 120.28125 211.261719 108.621094 207.832031 L 95.726562 204.035156 C 95.726562 204.035156 96.671875 199.957031 98.472656 194.21875 C 99.359375 193.941406 100.269531 193.773438 101.191406 193.726562 C 125.074219 192.636719 146.464844 210.503906 186.082031 210.035156 C 243.332031 209.347656 254.667969 186.515625 254.667969 186.515625 L 257.75 194.625 C 257.398438 194.640625 257.046875 194.652344 256.691406 194.664062 C 256.554688 194.667969 256.410156 194.675781 256.261719 194.679688 Z M 258.878906 204.035156 " fill-opacity="0.298" fill-rule="nonzero"/><path fill="#102770" d="M 332.355469 151.757812 C 332.355469 151.757812 324.566406 192.5 256.691406 194.664062 L 251.667969 174.453125 C 251.667969 174.453125 311.949219 174.792969 329.195312 149.828125 Z M 332.355469 151.757812 " fill-opacity="0.298" fill-rule="nonzero"/><path fill="#102770" d="M 177.855469 222.660156 C 166.46875 222.660156 154.980469 221.660156 143.699219 219.679688 C 142.714844 219.503906 141.992188 218.648438 141.992188 217.644531 L 141.992188 214.925781 C 141.992188 208.796875 143.902344 203.015625 147.367188 198.648438 C 150.945312 194.140625 155.742188 191.660156 160.878906 191.660156 L 207.839844 191.660156 C 212.976562 191.660156 217.773438 194.140625 221.347656 198.644531 C 224.808594 203.011719 226.71875 208.789062 226.722656 214.917969 C 226.722656 215.867188 226.070312 216.699219 225.148438 216.925781 C 209.625 220.730469 193.710938 222.660156 177.855469 222.660156 Z M 146.121094 215.898438 C 156.617188 217.644531 167.285156 218.527344 177.855469 218.527344 C 192.828125 218.527344 207.851562 216.769531 222.539062 213.300781 C 221.898438 203.511719 215.550781 195.792969 207.839844 195.792969 L 160.878906 195.792969 C 152.742188 195.792969 146.121094 204.375 146.121094 214.925781 Z M 146.121094 215.898438 " fill-opacity="1" fill-rule="nonzero"/><path fill="#102770" d="M 95.726562 206.105469 C 95.570312 206.105469 95.414062 206.089844 95.253906 206.050781 C 94.144531 205.792969 93.453125 204.683594 93.710938 203.570312 C 93.785156 203.25 95.578125 195.613281 98.917969 186.4375 C 103.460938 173.96875 108.476562 165.125 113.824219 160.148438 C 119.515625 154.859375 125.976562 151.125 133.03125 149.046875 C 138.664062 147.390625 144.675781 146.785156 150.894531 147.25 C 160.121094 147.941406 166.980469 150.761719 168.769531 151.5625 L 199.433594 151.5625 C 202.429688 148.496094 214.738281 140.445312 260.472656 142.644531 C 276.328125 143.40625 288.371094 141.433594 295.679688 139.640625 C 303.601562 137.703125 307.824219 135.558594 307.867188 135.535156 C 308.503906 135.207031 309.273438 135.234375 309.886719 135.609375 L 333.433594 149.992188 C 334.164062 150.441406 334.542969 151.285156 334.390625 152.128906 C 334.308594 152.570312 332.300781 163.101562 321.589844 173.90625 C 315.359375 180.1875 307.449219 185.269531 298.078125 189.015625 C 286.464844 193.65625 272.5625 196.246094 256.746094 196.710938 C 255.605469 196.738281 254.65625 195.847656 254.625 194.707031 C 254.589844 193.566406 255.484375 192.613281 256.625 192.578125 C 291.210938 191.5625 309.449219 180.277344 318.660156 170.992188 C 326.320312 163.265625 329.121094 155.71875 329.988281 152.730469 L 308.6875 139.71875 C 306.902344 140.511719 302.917969 142.113281 296.851562 143.613281 C 289.246094 145.492188 276.726562 147.5625 260.277344 146.773438 C 233.066406 145.464844 218.472656 147.90625 211.023438 150.1875 C 204.019531 152.328125 202.191406 154.65625 202.179688 154.675781 C 201.808594 155.308594 201.128906 155.699219 200.398438 155.699219 L 168.320312 155.699219 C 168.007812 155.699219 167.699219 155.628906 167.417969 155.492188 C 167.347656 155.457031 160.242188 152.066406 150.441406 151.363281 C 137.449219 150.425781 126.078125 154.402344 116.640625 163.179688 C 104.929688 174.066406 97.808594 204.207031 97.738281 204.511719 C 97.511719 205.460938 96.664062 206.105469 95.726562 206.105469 Z M 95.726562 206.105469 " fill-opacity="1" fill-rule="nonzero"/><path fill="#102770" d="M 258.597656 144.628906 C 254.441406 152.554688 245.652344 159.460938 233.472656 163.976562 C 221.835938 168.289062 205.519531 172.136719 184.359375 172.140625 L 184.328125 172.140625 C 163.164062 172.136719 146.863281 168.292969 135.230469 163.976562 C 129.917969 162.007812 125.253906 159.578125 121.335938 156.8125 C 143.832031 141.710938 168.320312 153.625 168.320312 153.625 L 200.394531 153.625 C 200.394531 153.625 206.972656 142.402344 258.597656 144.628906 Z M 258.597656 144.628906 " fill-opacity="0.298" fill-rule="nonzero"/><path fill="#ffffff" d="M 77.046875 201.832031 C 77.046875 201.832031 72.445312 211.660156 79.734375 220.125 C 87.023438 228.589844 107.535156 230.566406 116.023438 227.226562 C 125.132812 223.640625 126.0625 210.347656 126.714844 205.984375 C 128.5625 193.597656 84.074219 187.953125 77.046875 201.832031 Z M 77.046875 201.832031 " fill-opacity="1" fill-rule="nonzero"/><path fill="#102770" d="M 105.65625 229.089844 C 96.203125 229.089844 84.636719 226.320312 79.484375 220.339844 C 75.648438 215.882812 75.105469 211.050781 75.328125 207.78125 C 75.566406 204.246094 76.699219 201.796875 76.746094 201.695312 L 76.75 201.6875 C 78.917969 197.40625 84.777344 194.5625 93.25 193.679688 C 100.699219 192.902344 109.210938 193.734375 116.015625 195.90625 C 119.535156 197.03125 122.398438 198.476562 124.289062 200.085938 C 126.429688 201.910156 127.355469 203.910156 127.039062 206.035156 C 126.984375 206.40625 126.925781 206.84375 126.863281 207.34375 C 126.503906 210.066406 125.964844 214.179688 124.449219 218.132812 C 122.609375 222.925781 119.816406 226.089844 116.144531 227.535156 C 113.535156 228.558594 109.796875 229.089844 105.65625 229.089844 Z M 77.339844 201.976562 C 77.289062 202.089844 76.207031 204.5 75.980469 207.851562 C 75.773438 210.988281 76.296875 215.628906 79.984375 219.910156 C 83.203125 223.644531 89.578125 226.515625 97.480469 227.777344 C 104.496094 228.898438 111.726562 228.5625 115.902344 226.921875 C 124.046875 223.714844 125.507812 212.601562 126.207031 207.257812 C 126.277344 206.753906 126.332031 206.316406 126.390625 205.9375 C 126.933594 202.28125 123.082031 198.851562 115.8125 196.53125 C 109.191406 194.417969 100.570312 193.574219 93.316406 194.332031 C 85.078125 195.191406 79.40625 197.90625 77.339844 201.976562 Z M 77.339844 201.976562 " fill-opacity="1" fill-rule="nonzero"/><path fill="#102770" d="M 126.714844 205.980469 C 126.066406 210.34375 125.128906 223.640625 116.023438 227.226562 C 107.535156 230.570312 87.023438 228.589844 79.734375 220.125 C 74.511719 214.054688 75.390625 207.292969 76.316406 203.945312 C 76.925781 205.453125 77.988281 207.015625 79.734375 208.515625 C 87.023438 214.792969 107.535156 216.257812 116.023438 213.78125 C 122.421875 211.914062 124.789062 206.484375 125.847656 202.304688 C 126.589844 203.445312 126.910156 204.675781 126.714844 205.980469 Z M 126.714844 205.980469 " fill-opacity="0.298" fill-rule="nonzero"/><g clip-path="url(#3cbd7ff5ff)"><path fill="#102770" d="M 105.671875 230.835938 C 102.925781 230.835938 100.015625 230.605469 97.105469 230.140625 C 92.136719 229.347656 83.074219 227.164062 78.171875 221.472656 C 74.828125 217.589844 73.246094 212.816406 73.597656 207.660156 C 73.859375 203.804688 75.125 201.070312 75.175781 200.953125 C 75.1875 200.933594 75.195312 200.914062 75.203125 200.894531 C 80.566406 190.3125 102.894531 189.890625 116.542969 194.246094 C 120.339844 195.457031 123.324219 196.976562 125.417969 198.757812 C 128.691406 201.546875 129.042969 204.390625 128.757812 206.289062 C 128.707031 206.644531 128.648438 207.074219 128.585938 207.570312 C 128.238281 210.203125 127.660156 214.609375 126.070312 218.75 C 124.046875 224.019531 120.921875 227.515625 116.78125 229.148438 C 113.949219 230.261719 110.019531 230.835938 105.671875 230.835938 Z M 78.90625 202.726562 C 78.796875 202.984375 77.882812 205.144531 77.707031 208.089844 C 77.46875 212.136719 78.675781 215.730469 81.296875 218.773438 C 84.253906 222.207031 90.25 224.863281 97.753906 226.0625 C 104.488281 227.136719 111.363281 226.839844 115.269531 225.304688 C 122.457031 222.472656 123.828125 212.042969 124.488281 207.03125 C 124.554688 206.519531 124.613281 206.074219 124.675781 205.679688 C 125.070312 203.035156 121.472656 200.164062 115.289062 198.1875 C 108.878906 196.144531 100.53125 195.328125 93.496094 196.0625 C 86.003906 196.84375 80.6875 199.273438 78.90625 202.726562 Z M 78.90625 202.726562 " fill-opacity="1" fill-rule="nonzero"/></g><path fill="#102770" d="M 261.3125 215.339844 C 260.386719 215.339844 259.542969 214.710938 259.308594 213.769531 L 247.890625 167.804688 C 247.613281 166.695312 248.289062 165.574219 249.398438 165.300781 C 250.503906 165.023438 251.625 165.699219 251.898438 166.808594 L 263.316406 212.773438 C 263.59375 213.882812 262.917969 215.003906 261.8125 215.277344 C 261.644531 215.316406 261.476562 215.339844 261.3125 215.339844 Z M 261.3125 215.339844 " fill-opacity="1" fill-rule="nonzero"/><path fill="#ffffff" d="M 309.550781 132.25 L 319.917969 131.144531 L 308.871094 27.277344 C 308.566406 24.410156 305.996094 22.335938 303.136719 22.640625 C 300.273438 22.945312 298.199219 25.515625 298.503906 28.382812 Z M 309.550781 132.25 " fill-opacity="1" fill-rule="nonzero"/><path fill="#102770" d="M 319.917969 131.144531 L 309.550781 132.246094 L 298.503906 28.382812 C 298.484375 28.191406 298.476562 28.007812 298.476562 27.816406 C 298.476562 25.351562 300.214844 23.210938 302.632812 22.710938 L 311.164062 102.859375 C 311.5 105.996094 314.3125 108.273438 317.449219 107.9375 Z M 319.917969 131.144531 " fill-opacity="0.298" fill-rule="nonzero"/><path fill="#ffffff" d="M 389.992188 79.3125 L 382.921875 82.238281 C 382.921875 82.238281 357.910156 83.792969 354.988281 81.945312 C 354.761719 81.804688 354.539062 81.667969 354.3125 81.535156 C 354.308594 81.527344 354.300781 81.515625 354.292969 81.515625 C 351.828125 80.035156 350.199219 80.476562 347.753906 79.789062 C 347.746094 79.789062 345.265625 80.476562 345.214844 80.476562 C 335.796875 77.851562 328.550781 79.433594 322.265625 82.410156 C 322.261719 82.410156 322.160156 81.289062 322.160156 81.289062 C 316.796875 83.824219 313.410156 86.605469 313.410156 86.605469 L 307.5625 31.632812 C 307.5625 31.632812 307.964844 30.964844 308.769531 29.90625 C 309.417969 29.058594 310.332031 27.953125 311.503906 26.753906 C 311.507812 26.746094 311.519531 26.742188 311.519531 26.734375 C 311.582031 26.679688 311.636719 26.621094 311.703125 26.550781 C 311.714844 26.53125 311.730469 26.519531 311.75 26.503906 C 316.371094 21.855469 324.808594 15.925781 337.011719 17.171875 C 337.625 17.234375 338.25 17.316406 338.878906 17.421875 C 342.230469 17.9375 345.847656 19.015625 349.734375 20.777344 C 350.75 21.234375 351.480469 21.304688 352.152344 21.347656 C 352.945312 21.394531 353.664062 21.402344 354.664062 21.949219 C 362.652344 26.359375 374.828125 23.648438 383.328125 20.175781 L 388.117188 62.691406 Z M 389.992188 79.3125 " fill-opacity="1" fill-rule="nonzero"/><path fill="#102770" d="M 372.09375 43.210938 C 372.539062 41.828125 373.011719 40.433594 373.019531 38.9375 C 372.929688 38.753906 372.847656 38.570312 372.753906 38.390625 C 372.375 38.160156 372.011719 37.886719 371.609375 37.695312 C 368.761719 36.320312 365.78125 35.40625 362.640625 35.054688 C 358.539062 34.597656 354.59375 35.101562 350.902344 37.03125 C 349.566406 37.726562 348.304688 38.558594 347.03125 39.359375 C 346.6875 39.574219 346.441406 39.644531 346.074219 39.378906 C 345.207031 38.753906 344.222656 38.359375 343.191406 38.097656 C 340.421875 37.410156 337.75 37.816406 335.132812 38.8125 C 332.296875 39.898438 329.839844 41.617188 327.496094 43.511719 C 326.5 44.3125 326.597656 45.449219 327.714844 46.09375 C 328.421875 46.492188 329.132812 46.886719 329.835938 47.285156 C 331.53125 48.234375 333.222656 49.175781 334.914062 50.125 C 334.902344 50.179688 334.898438 50.210938 334.886719 50.238281 C 334.863281 50.269531 334.839844 50.308594 334.808594 50.335938 C 333.859375 51.15625 333.863281 52.089844 334.492188 53.09375 C 334.558594 53.203125 334.609375 53.328125 334.664062 53.445312 C 334.972656 54.078125 335.285156 54.714844 335.613281 55.375 C 334.917969 55.722656 334.25 56 333.628906 56.371094 C 333.316406 56.558594 333.015625 56.863281 332.847656 57.1875 C 332.566406 57.714844 332.738281 58.34375 333.179688 58.738281 C 333.640625 59.160156 334.1875 59.253906 334.75 59 C 335.460938 58.679688 336.152344 58.320312 336.882812 57.960938 C 337.324219 58.871094 337.742188 59.730469 338.164062 60.582031 C 338.648438 61.550781 339.066406 61.785156 340.136719 61.707031 C 340.332031 61.6875 340.519531 61.683594 340.75 61.675781 C 340.71875 61.894531 340.703125 62.070312 340.679688 62.234375 C 340.285156 64.878906 339.882812 67.519531 339.503906 70.160156 C 339.324219 71.410156 340.183594 72.191406 341.40625 71.878906 C 342.507812 71.605469 343.613281 71.304688 344.710938 70.964844 C 347.234375 70.179688 349.609375 69.074219 351.667969 67.386719 C 354.242188 65.257812 355.953125 62.648438 356.089844 59.191406 C 356.09375 59.054688 356.246094 58.851562 356.375 58.804688 C 357.523438 58.351562 358.6875 57.949219 359.835938 57.492188 C 362.433594 56.453125 364.667969 54.875 366.574219 52.835938 C 369.164062 50.066406 370.941406 46.8125 372.09375 43.210938 Z M 336.902344 47.949219 C 334.945312 46.847656 332.917969 45.707031 330.835938 44.535156 C 333.628906 42.546875 336.488281 40.894531 339.949219 40.648438 C 341.445312 40.539062 343.078125 40.902344 343.96875 41.488281 C 341.628906 43.632812 339.289062 45.773438 336.902344 47.949219 Z M 352.351562 62.230469 C 351.484375 63.824219 350.191406 65.003906 348.695312 65.984375 C 346.839844 67.191406 344.804688 67.957031 342.640625 68.601562 C 343.003906 66.171875 343.351562 63.792969 343.695312 61.464844 C 346.882812 60.90625 349.996094 60.359375 353.128906 59.808594 C 353.082031 60.632812 352.777344 61.457031 352.351562 62.230469 Z M 366.488281 48.308594 C 365.089844 50.367188 363.429688 52.164062 361.3125 53.503906 C 359.679688 54.527344 357.910156 55.261719 356.085938 55.859375 C 351.132812 57.484375 346.015625 58.265625 340.84375 58.757812 C 340.59375 58.777344 340.449219 58.734375 340.335938 58.484375 C 340.09375 57.933594 339.804688 57.390625 339.539062 56.84375 C 339.523438 56.808594 339.523438 56.765625 339.503906 56.671875 C 339.648438 56.597656 339.800781 56.523438 339.957031 56.449219 C 343.167969 54.863281 346.390625 53.292969 349.601562 51.707031 C 350.527344 51.253906 350.773438 50.210938 350.148438 49.453125 C 349.710938 48.925781 349.027344 48.792969 348.335938 49.125 C 346.40625 50.070312 344.480469 51.015625 342.554688 51.964844 C 341.117188 52.671875 339.691406 53.375 338.199219 54.109375 C 337.871094 53.4375 337.546875 52.824219 337.273438 52.1875 C 337.226562 52.074219 337.34375 51.835938 337.457031 51.730469 C 339.382812 49.8125 341.296875 47.878906 343.277344 46.007812 C 345.234375 44.152344 347.371094 42.5 349.648438 41.050781 C 351.785156 39.675781 354.027344 38.535156 356.558594 38.09375 C 358.179688 37.808594 359.8125 37.71875 361.449219 37.867188 C 361.597656 37.875 361.777344 38.0625 361.855469 38.21875 C 363.066406 40.65625 364.253906 43.089844 365.449219 45.527344 C 365.808594 46.257812 366.15625 46.996094 366.53125 47.714844 C 366.644531 47.933594 366.628906 48.097656 366.488281 48.308594 Z M 368.042969 45.550781 C 366.855469 43.117188 365.691406 40.746094 364.527344 38.367188 C 364.539062 38.320312 364.5625 38.269531 364.582031 38.21875 C 366.375 38.804688 368.167969 39.398438 369.980469 39.992188 C 369.542969 41.988281 368.882812 43.761719 368.042969 45.550781 Z M 368.042969 45.550781 " fill-opacity="1" fill-rule="nonzero"/><path fill="#ffffff" d="M 366.535156 47.714844 C 366.160156 46.992188 365.808594 46.257812 365.449219 45.527344 C 364.257812 43.089844 363.066406 40.652344 361.859375 38.21875 C 361.78125 38.0625 361.597656 37.875 361.449219 37.867188 C 359.8125 37.71875 358.179688 37.808594 356.558594 38.09375 C 354.03125 38.535156 351.785156 39.675781 349.648438 41.050781 C 347.371094 42.5 345.238281 44.148438 343.277344 46.007812 C 341.300781 47.875 339.382812 49.808594 337.457031 51.730469 C 337.34375 51.835938 337.226562 52.074219 337.273438 52.1875 C 337.550781 52.824219 337.871094 53.4375 338.199219 54.109375 C 339.695312 53.375 341.121094 52.671875 342.554688 51.964844 C 344.484375 51.015625 346.40625 50.070312 348.339844 49.125 C 349.027344 48.796875 349.714844 48.925781 350.148438 49.453125 C 350.773438 50.210938 350.53125 51.253906 349.601562 51.707031 C 346.390625 53.292969 343.167969 54.863281 339.957031 56.449219 C 339.804688 56.523438 339.648438 56.597656 339.507812 56.671875 C 339.523438 56.765625 339.523438 56.808594 339.542969 56.84375 C 339.808594 57.390625 340.09375 57.933594 340.339844 58.484375 C 340.453125 58.734375 340.59375 58.777344 340.847656 58.757812 C 346.015625 58.265625 351.132812 57.484375 356.085938 55.859375 C 357.910156 55.261719 359.679688 54.527344 361.3125 53.503906 C 363.433594 52.164062 365.089844 50.367188 366.488281 48.308594 C 366.628906 48.097656 366.644531 47.933594 366.535156 47.714844 Z M 361.003906 49.964844 C 358.554688 51.144531 355.625 50.148438 354.445312 47.730469 C 353.253906 45.3125 354.261719 42.382812 356.691406 41.175781 C 359.082031 39.996094 362.011719 41.007812 363.207031 43.429688 C 364.386719 45.832031 363.386719 48.8125 361.003906 49.964844 Z M 361.003906 49.964844 " fill-opacity="1" fill-rule="nonzero"/><path fill="#ec1c24" d="M 368.042969 45.546875 C 366.851562 43.117188 365.691406 40.746094 364.527344 38.367188 C 364.542969 38.320312 364.5625 38.269531 364.578125 38.21875 C 366.371094 38.808594 368.164062 39.398438 369.980469 39.996094 C 369.546875 41.988281 368.882812 43.761719 368.042969 45.546875 Z M 368.042969 45.546875 " fill-opacity="1" fill-rule="nonzero"/><path fill="#ec1c24" d="M 343.96875 41.488281 C 341.628906 43.628906 339.289062 45.769531 336.902344 47.949219 C 334.945312 46.84375 332.917969 45.707031 330.835938 44.535156 C 333.628906 42.542969 336.488281 40.890625 339.949219 40.648438 C 341.445312 40.539062 343.078125 40.898438 343.96875 41.488281 Z M 343.96875 41.488281 " fill-opacity="1" fill-rule="nonzero"/><path fill="#ec1c24" d="M 348.691406 65.984375 C 346.835938 67.191406 344.804688 67.960938 342.640625 68.597656 C 343 66.171875 343.351562 63.792969 343.695312 61.464844 C 346.882812 60.90625 349.996094 60.359375 353.132812 59.808594 C 353.085938 60.632812 352.773438 61.453125 352.351562 62.234375 C 351.484375 63.824219 350.195312 65.003906 348.691406 65.984375 Z M 348.691406 65.984375 " fill-opacity="1" fill-rule="nonzero"/><path fill="#102770" d="M 363.207031 43.429688 C 362.011719 41.007812 359.082031 39.996094 356.695312 41.175781 C 354.261719 42.382812 353.253906 45.3125 354.445312 47.730469 C 355.625 50.148438 358.558594 51.144531 361.003906 49.964844 C 363.386719 48.8125 364.386719 45.832031 363.207031 43.429688 Z M 359.921875 47.90625 C 358.683594 48.507812 357.140625 47.976562 356.515625 46.730469 C 355.871094 45.445312 356.433594 43.859375 357.753906 43.234375 C 358.992188 42.644531 360.558594 43.199219 361.152344 44.445312 C 361.773438 45.742188 361.226562 47.277344 359.921875 47.90625 Z M 359.921875 47.90625 " fill-opacity="1" fill-rule="nonzero"/><path fill="#22a7f0" d="M 359.921875 47.90625 C 358.683594 48.507812 357.140625 47.976562 356.515625 46.730469 C 355.871094 45.449219 356.433594 43.859375 357.753906 43.238281 C 358.992188 42.644531 360.558594 43.199219 361.152344 44.441406 C 361.773438 45.742188 361.226562 47.277344 359.921875 47.90625 Z M 359.921875 47.90625 " fill-opacity="1" fill-rule="nonzero"/><path fill="#102770" d="M 313.980469 134.730469 C 312.628906 134.730469 311.324219 134.273438 310.257812 133.410156 C 309.019531 132.410156 308.246094 130.988281 308.078125 129.40625 L 297.363281 28.664062 C 297.195312 27.082031 297.652344 25.53125 298.648438 24.292969 C 299.648438 23.058594 301.066406 22.28125 302.648438 22.113281 C 304.226562 21.945312 305.777344 22.402344 307.015625 23.402344 C 308.25 24.402344 309.023438 25.824219 309.191406 27.40625 L 319.90625 128.148438 C 320.074219 129.730469 319.617188 131.28125 318.621094 132.519531 C 317.621094 133.753906 316.203125 134.527344 314.621094 134.699219 C 314.40625 134.71875 314.195312 134.730469 313.980469 134.730469 Z M 303.28125 26.214844 C 303.214844 26.214844 303.148438 26.21875 303.082031 26.226562 C 302.601562 26.277344 302.167969 26.511719 301.859375 26.890625 C 301.558594 27.269531 301.417969 27.746094 301.46875 28.226562 L 312.183594 128.96875 C 312.234375 129.453125 312.472656 129.886719 312.847656 130.191406 C 313.226562 130.496094 313.703125 130.636719 314.183594 130.585938 C 314.667969 130.535156 315.101562 130.300781 315.40625 129.921875 C 315.710938 129.542969 315.851562 129.066406 315.800781 128.585938 L 305.085938 27.839844 C 305.035156 27.359375 304.796875 26.925781 304.417969 26.617188 C 304.09375 26.355469 303.695312 26.214844 303.28125 26.214844 Z M 303.28125 26.214844 " fill-opacity="1" fill-rule="nonzero"/><g clip-path="url(#b916f2b29f)"><path fill="#102770" d="M 313.414062 88.675781 C 312.6875 88.675781 311.984375 88.289062 311.605469 87.609375 C 311.054688 86.613281 311.414062 85.355469 312.410156 84.800781 C 312.605469 84.691406 317.289062 82.121094 324.941406 80.226562 C 331.976562 78.488281 342.984375 77.023438 355.453125 79.929688 C 367.195312 82.664062 376.246094 81.6875 381.773438 80.390625 C 385.726562 79.460938 388.492188 78.234375 389.925781 77.507812 L 381.667969 23 C 374.128906 25.515625 360.292969 27.859375 348.875 22.660156 C 337.929688 17.675781 327.953125 17.855469 319.226562 23.191406 C 312.691406 27.1875 309.367188 32.644531 309.332031 32.699219 C 308.746094 33.675781 307.476562 33.992188 306.5 33.402344 C 305.523438 32.816406 305.207031 31.546875 305.792969 30.566406 C 305.949219 30.308594 309.683594 24.183594 317.074219 19.664062 C 321.445312 16.992188 326.1875 15.4375 331.171875 15.039062 C 337.347656 14.546875 343.882812 15.84375 350.585938 18.898438 C 361.261719 23.761719 375.539062 21.1875 382.535156 18.273438 C 383.121094 18.027344 383.785156 18.066406 384.339844 18.378906 C 384.894531 18.691406 385.273438 19.242188 385.371094 19.867188 L 394.222656 78.304688 C 394.34375 79.101562 393.988281 79.898438 393.3125 80.339844 C 393.164062 80.441406 389.5625 82.769531 382.953125 84.359375 C 376.957031 85.796875 367.15625 86.898438 354.515625 83.957031 C 342.90625 81.25 332.640625 82.597656 326.070312 84.207031 C 318.910156 85.960938 314.453125 88.394531 314.410156 88.417969 C 314.09375 88.59375 313.753906 88.675781 313.414062 88.675781 Z M 313.414062 88.675781 " fill-opacity="1" fill-rule="nonzero"/></g><path fill="#ffffff" d="M 324.277344 163.511719 C 324.277344 163.511719 314.460938 168.117188 306.003906 160.820312 C 297.546875 153.523438 295.570312 132.992188 298.90625 124.496094 C 302.488281 115.378906 315.734375 113.429688 320.128906 113.792969 C 337.867188 115.261719 338.144531 156.472656 324.277344 163.511719 Z M 324.277344 163.511719 " fill-opacity="1" fill-rule="nonzero"/><path fill="#102770" d="M 317.082031 165.273438 C 313.902344 165.273438 309.703125 164.445312 305.789062 161.070312 C 297.195312 153.65625 295.234375 132.957031 298.601562 124.375 C 300.589844 119.316406 305.410156 116.636719 309.101562 115.28125 C 313.269531 113.75 317.757812 113.269531 320.15625 113.46875 C 326.75 114.011719 331.652344 120.050781 333.605469 130.03125 C 334.867188 136.476562 334.699219 143.796875 333.144531 150.117188 C 331.46875 156.941406 328.371094 161.800781 324.425781 163.804688 L 324.417969 163.808594 C 324.3125 163.855469 321.867188 164.988281 318.335938 165.230469 C 317.9375 165.257812 317.519531 165.273438 317.082031 165.273438 Z M 319.011719 114.078125 C 316.554688 114.078125 312.835938 114.609375 309.328125 115.898438 C 305.761719 117.207031 301.113281 119.78125 299.214844 124.617188 C 297.574219 128.792969 297.238281 136.03125 298.359375 143.054688 C 299.621094 150.964844 302.484375 157.347656 306.21875 160.570312 C 310.492188 164.257812 315.128906 164.785156 318.265625 164.574219 C 321.613281 164.351562 324.019531 163.265625 324.132812 163.214844 C 327.90625 161.296875 330.878906 156.589844 332.507812 149.957031 C 334.039062 143.726562 334.203125 136.511719 332.960938 130.152344 C 331.070312 120.484375 326.382812 114.640625 320.101562 114.121094 C 319.777344 114.09375 319.410156 114.078125 319.011719 114.078125 Z M 319.011719 114.078125 " fill-opacity="1" fill-rule="nonzero"/><path fill="#102770" d="M 324.277344 163.511719 C 324.277344 163.511719 314.460938 168.113281 306 160.816406 C 299.652344 155.339844 296.953125 142.398438 297.417969 132.691406 C 297.8125 137.890625 300.570312 143.808594 306 146.542969 C 314.460938 150.796875 324.277344 148.117188 324.277344 148.117188 C 330.0625 146.398438 333.390625 141.214844 334.007812 135.691406 C 334.777344 147.304688 331.386719 159.902344 324.277344 163.511719 Z M 324.277344 163.511719 " fill-opacity="0.298" fill-rule="nonzero"/><path fill="#ffffff" d="M 298.265625 126.523438 C 297.8125 128.308594 297.527344 130.40625 297.417969 132.6875 C 297.246094 130.378906 297.535156 128.210938 298.265625 126.523438 Z M 298.265625 126.523438 " fill-opacity="1" fill-rule="nonzero"/><path fill="#ffffff" d="M 334.007812 135.691406 C 333.789062 132.496094 333.261719 129.371094 332.410156 126.53125 C 333.839844 129.308594 334.359375 132.554688 334.007812 135.691406 Z M 334.007812 135.691406 " fill-opacity="1" fill-rule="nonzero"/><path fill="#102770" d="M 317.054688 167.011719 C 312.441406 167.011719 308.179688 165.425781 304.65625 162.382812 C 298.964844 157.476562 296.785156 148.40625 295.992188 143.433594 C 294.792969 135.902344 295.171875 128.359375 296.984375 123.742188 C 298.746094 119.257812 302.730469 115.769531 308.503906 113.648438 C 312.945312 112.019531 317.628906 111.511719 320.300781 111.734375 C 327.726562 112.347656 333.199219 118.894531 335.308594 129.695312 C 336.617188 136.382812 336.445312 143.976562 334.832031 150.53125 C 333.03125 157.855469 329.617188 163.121094 325.210938 165.355469 C 325.191406 165.363281 325.171875 165.375 325.152344 165.382812 C 325.039062 165.4375 322.304688 166.699219 318.453125 166.964844 C 317.984375 166.996094 317.515625 167.011719 317.054688 167.011719 Z M 324.277344 163.511719 Z M 319.058594 115.820312 C 316.988281 115.820312 313.433594 116.242188 309.925781 117.53125 C 306.695312 118.714844 302.492188 121.019531 300.828125 125.253906 C 299.292969 129.164062 298.996094 136.042969 300.070312 142.785156 C 301.269531 150.292969 303.921875 156.296875 307.351562 159.253906 C 314.523438 165.445312 322.882812 161.871094 323.378906 161.652344 C 326.675781 159.957031 329.316406 155.660156 330.820312 149.546875 C 332.292969 143.550781 332.453125 136.605469 331.257812 130.488281 C 330.4375 126.300781 327.695312 116.496094 319.960938 115.855469 C 319.703125 115.832031 319.402344 115.820312 319.058594 115.820312 Z M 319.058594 115.820312 " fill-opacity="1" fill-rule="nonzero"/><path fill="#fff2bd" d="M 90.75 174.273438 L 85.628906 175.066406 C 84.601562 175.226562 83.796875 176.03125 83.640625 177.058594 L 82.847656 182.183594 L 82.058594 177.058594 C 81.898438 176.03125 81.09375 175.222656 80.070312 175.066406 L 74.945312 174.273438 L 80.070312 173.484375 C 81.09375 173.324219 81.898438 172.519531 82.058594 171.492188 L 82.847656 166.367188 L 83.640625 171.492188 C 83.796875 172.519531 84.601562 173.324219 85.628906 173.484375 Z M 90.75 174.273438 " fill-opacity="1" fill-rule="nonzero"/><path fill="#fff2bd" d="M 74.945312 197.402344 L 70.136719 198.144531 C 69.175781 198.292969 68.417969 199.050781 68.269531 200.011719 L 67.53125 204.824219 L 66.789062 200.011719 C 66.640625 199.050781 65.882812 198.292969 64.921875 198.144531 L 60.113281 197.402344 L 64.921875 196.660156 C 65.882812 196.511719 66.640625 195.753906 66.789062 194.789062 L 67.53125 189.980469 L 68.269531 194.789062 C 68.417969 195.753906 69.175781 196.511719 70.136719 196.660156 Z M 74.945312 197.402344 " fill-opacity="1" fill-rule="nonzero"/><path fill="#fff2bd" d="M 48.199219 183.148438 L 44.617188 183.703125 C 43.898438 183.8125 43.332031 184.375 43.222656 185.09375 L 42.671875 188.683594 L 42.117188 185.09375 C 42.007812 184.375 41.445312 183.8125 40.726562 183.703125 L 37.140625 183.148438 L 40.726562 182.59375 C 41.445312 182.484375 42.007812 181.921875 42.117188 181.203125 L 42.671875 177.617188 L 43.222656 181.203125 C 43.332031 181.921875 43.898438 182.484375 44.617188 182.59375 Z M 48.199219 183.148438 " fill-opacity="1" fill-rule="nonzero"/><path fill="#fff2bd" d="M 331.222656 187 L 327.605469 187.558594 C 326.882812 187.671875 326.3125 188.238281 326.203125 188.964844 L 325.644531 192.585938 L 325.085938 188.964844 C 324.972656 188.238281 324.40625 187.671875 323.679688 187.558594 L 320.0625 187 L 323.679688 186.441406 C 324.402344 186.328125 324.972656 185.761719 325.085938 185.035156 L 325.644531 181.414062 L 326.203125 185.035156 C 326.3125 185.761719 326.882812 186.328125 327.605469 186.441406 Z M 331.222656 187 " fill-opacity="1" fill-rule="nonzero"/><path fill="#fff2bd" d="M 299.539062 201.03125 L 295.78125 201.609375 C 295.03125 201.726562 294.441406 202.316406 294.324219 203.070312 L 293.742188 206.828125 L 293.164062 203.070312 C 293.046875 202.316406 292.457031 201.726562 291.703125 201.609375 L 287.949219 201.03125 L 291.703125 200.449219 C 292.457031 200.332031 293.046875 199.742188 293.164062 198.988281 L 293.742188 195.230469 L 294.324219 198.988281 C 294.441406 199.742188 295.03125 200.332031 295.78125 200.449219 Z M 299.539062 201.03125 " fill-opacity="1" fill-rule="nonzero"/><path fill="#102770" d="M 389.992188 79.3125 L 382.921875 82.238281 C 382.921875 82.238281 357.910156 83.792969 354.988281 81.945312 C 354.761719 81.804688 354.539062 81.667969 354.3125 81.535156 C 354.308594 81.527344 354.300781 81.515625 354.292969 81.515625 C 351.828125 80.035156 350.199219 80.476562 347.753906 79.789062 C 347.746094 79.789062 345.265625 80.476562 345.214844 80.476562 C 335.796875 77.851562 328.550781 79.433594 322.265625 82.410156 C 322.261719 82.410156 322.160156 81.289062 322.160156 81.289062 C 316.796875 83.824219 313.410156 86.605469 313.410156 86.605469 L 307.5625 31.632812 C 307.5625 31.632812 307.964844 30.964844 308.769531 29.90625 C 309.9375 41.277344 313.289062 69.945312 317.6875 72.722656 C 320.125 74.265625 324.484375 72.34375 330.136719 70.914062 C 332.296875 70.367188 337.628906 66.019531 337.765625 63.796875 L 338.878906 17.417969 L 338.894531 16.671875 C 343.3125 17.117188 345.609375 18.421875 350.898438 20.828125 C 351.414062 21.058594 351.816406 21.222656 352.148438 21.34375 C 353.4375 21.804688 353.695312 21.628906 355.378906 22.550781 L 353.847656 65.554688 C 353.558594 68.171875 357.890625 70.644531 357.890625 70.644531 C 372.3125 76.828125 383.550781 66.632812 388.117188 62.691406 Z M 389.992188 79.3125 " fill-opacity="0.2" fill-rule="nonzero"/><path fill="#ffffff" d="M 117.359375 115.261719 L 103.722656 115.261719 C 97.132812 115.261719 91.789062 109.914062 91.789062 103.3125 L 91.789062 73.777344 C 91.789062 67.179688 97.132812 61.832031 103.722656 61.832031 L 117.359375 61.832031 Z M 117.359375 115.261719 " fill-opacity="1" fill-rule="nonzero"/><path fill="#ffffff" d="M 251.355469 61.832031 L 264.992188 61.832031 C 271.585938 61.832031 276.929688 67.179688 276.929688 73.777344 L 276.929688 103.3125 C 276.929688 109.914062 271.585938 115.261719 264.992188 115.261719 L 251.355469 115.261719 Z M 251.355469 61.832031 " fill-opacity="1" fill-rule="nonzero"/><path fill="#102770" d="M 117.359375 101.359375 L 117.359375 115.257812 L 107.449219 115.257812 C 98.800781 115.257812 91.789062 108.242188 91.789062 99.582031 L 91.789062 85.679688 C 91.789062 94.339844 98.800781 101.359375 107.449219 101.359375 Z M 117.359375 101.359375 " fill-opacity="0.298" fill-rule="nonzero"/><path fill="#102770" d="M 276.929688 85.679688 L 276.929688 99.582031 C 276.929688 108.242188 269.914062 115.257812 261.269531 115.257812 L 251.359375 115.257812 L 251.359375 101.359375 L 261.269531 101.359375 C 269.914062 101.359375 276.929688 94.339844 276.929688 85.679688 Z M 276.929688 85.679688 " fill-opacity="0.298" fill-rule="nonzero"/><path fill="#102770" d="M 117.359375 117.328125 L 103.722656 117.328125 C 96.003906 117.328125 89.722656 111.042969 89.722656 103.316406 L 89.722656 73.777344 C 89.722656 66.050781 96.003906 59.765625 103.722656 59.765625 L 117.359375 59.765625 C 118.5 59.765625 119.425781 60.691406 119.425781 61.832031 L 119.425781 115.261719 C 119.425781 116.402344 118.5 117.328125 117.359375 117.328125 Z M 103.722656 63.898438 C 98.28125 63.898438 93.855469 68.332031 93.855469 73.777344 L 93.855469 103.3125 C 93.855469 108.761719 98.28125 113.195312 103.722656 113.195312 L 115.292969 113.195312 L 115.292969 63.898438 Z M 103.722656 63.898438 " fill-opacity="1" fill-rule="nonzero"/><path fill="#102770" d="M 264.992188 117.328125 L 251.355469 117.328125 C 250.21875 117.328125 249.292969 116.402344 249.292969 115.261719 L 249.292969 61.832031 C 249.292969 60.691406 250.214844 59.761719 251.355469 59.761719 L 264.992188 59.761719 C 272.710938 59.761719 278.992188 66.050781 278.992188 73.777344 L 278.992188 103.3125 C 278.992188 111.042969 272.710938 117.328125 264.992188 117.328125 Z M 253.421875 113.195312 L 264.992188 113.195312 C 270.4375 113.195312 274.863281 108.761719 274.863281 103.316406 L 274.863281 73.777344 C 274.863281 68.332031 270.4375 63.898438 264.992188 63.898438 L 253.421875 63.898438 Z M 253.421875 113.195312 " fill-opacity="1" fill-rule="nonzero"/><g clip-path="url(#ef2adde924)"><path fill="#102770" d="M 184.359375 160.125 C 184.347656 160.125 184.339844 160.125 184.328125 160.125 C 184.328125 160.125 184.324219 160.125 184.324219 160.125 C 174.367188 160.121094 164.710938 158.625 155.617188 155.675781 C 148.078125 153.230469 140.859375 149.765625 134.167969 145.378906 C 126.371094 140.273438 119.675781 133.253906 114.804688 125.085938 C 109.972656 116.984375 106.882812 107.667969 105.867188 98.148438 C 103.863281 79.308594 105.300781 51.980469 123.566406 28.761719 C 128.847656 22.046875 135.339844 16.394531 142.859375 11.964844 C 148.859375 8.429688 155.519531 5.660156 162.65625 3.734375 C 174.386719 0.566406 183.40625 0.734375 184.359375 0.761719 C 185.3125 0.734375 194.328125 0.566406 206.0625 3.734375 C 213.199219 5.660156 219.859375 8.429688 225.859375 11.964844 C 233.378906 16.394531 239.871094 22.046875 245.152344 28.761719 C 263.410156 51.976562 264.855469 79.300781 262.851562 98.132812 C 261.835938 107.660156 258.746094 116.976562 253.910156 125.082031 C 249.035156 133.25 242.335938 140.269531 234.539062 145.375 C 227.839844 149.761719 220.621094 153.226562 213.074219 155.671875 C 203.980469 158.625 194.320312 160.121094 184.363281 160.125 C 184.363281 160.125 184.359375 160.125 184.359375 160.125 Z M 183.636719 4.632812 C 181.359375 4.632812 173.367188 4.84375 163.539062 7.511719 C 152.910156 10.398438 137.871094 16.84375 126.609375 31.164062 C 109.152344 53.351562 107.792969 79.613281 109.722656 97.738281 C 111.6875 116.179688 121.371094 132.363281 136.289062 142.136719 C 150.578125 151.496094 166.746094 156.242188 184.34375 156.246094 C 201.941406 156.246094 218.117188 151.496094 232.417969 142.132812 C 247.347656 132.355469 257.035156 116.167969 259 97.726562 C 260.925781 79.605469 259.5625 53.351562 242.109375 31.164062 C 230.84375 16.84375 215.808594 10.398438 205.175781 7.511719 C 193.566406 4.363281 184.519531 4.636719 184.425781 4.640625 C 184.382812 4.644531 184.332031 4.644531 184.285156 4.640625 C 184.273438 4.640625 184.050781 4.632812 183.636719 4.632812 Z M 183.636719 4.632812 " fill-opacity="1" fill-rule="nonzero"/></g><path fill="#ffffff" d="M 184.328125 158.1875 C 205.507812 158.1875 221.832031 151.378906 233.476562 143.753906 C 248.929688 133.636719 258.925781 116.707031 260.921875 97.933594 C 262.941406 78.984375 261.339844 52.484375 243.628906 29.972656 C 221.128906 1.363281 184.359375 2.710938 184.359375 2.710938 C 184.359375 2.710938 147.589844 1.363281 125.085938 29.96875 C 107.371094 52.488281 105.777344 78.996094 107.796875 97.945312 C 109.792969 116.714844 119.78125 133.636719 135.230469 143.757812 C 146.867188 151.378906 163.183594 158.183594 184.359375 158.183594 L 184.328125 158.183594 Z M 184.328125 158.1875 " fill-opacity="1" fill-rule="nonzero"/><path fill="#102770" d="M 260.921875 97.929688 C 258.921875 116.703125 248.933594 133.636719 233.476562 143.753906 C 221.839844 151.371094 205.519531 158.179688 184.359375 158.1875 L 184.328125 158.1875 C 163.167969 158.179688 146.859375 151.371094 135.226562 143.753906 C 119.777344 133.640625 109.796875 116.714844 107.792969 97.945312 C 107.15625 91.960938 106.875 85.222656 107.359375 78.09375 C 107.464844 79.851562 107.617188 81.558594 107.792969 83.210938 C 109.796875 101.976562 119.777344 118.902344 135.226562 129.023438 C 146.859375 136.640625 163.167969 143.441406 184.328125 143.449219 L 184.359375 143.449219 C 205.519531 143.441406 221.839844 136.636719 233.476562 129.015625 C 248.933594 118.894531 258.921875 101.972656 260.921875 83.199219 C 261.097656 81.542969 261.246094 79.835938 261.355469 78.078125 C 261.839844 85.207031 261.558594 91.945312 260.921875 97.929688 Z M 260.921875 97.929688 " fill-opacity="0.298" fill-rule="nonzero"/><g clip-path="url(#6119d450aa)"><path fill="#102770" d="M 184.359375 160.253906 C 184.347656 160.253906 184.339844 160.253906 184.328125 160.253906 C 184.328125 160.253906 184.324219 160.253906 184.324219 160.253906 C 174.355469 160.25 164.683594 158.75 155.582031 155.796875 C 148.027344 153.347656 140.800781 149.878906 134.097656 145.488281 C 126.289062 140.371094 119.578125 133.339844 114.695312 125.152344 C 109.855469 117.035156 106.757812 107.703125 105.742188 98.160156 C 103.730469 79.300781 105.175781 51.933594 123.464844 28.683594 C 128.757812 21.957031 135.257812 16.292969 142.792969 11.851562 C 148.800781 8.3125 155.472656 5.539062 162.625 3.609375 C 174.355469 0.445312 183.378906 0.605469 184.359375 0.636719 C 185.335938 0.609375 194.359375 0.445312 206.09375 3.609375 C 213.242188 5.539062 219.914062 8.3125 225.921875 11.851562 C 233.457031 16.292969 239.960938 21.957031 245.25 28.683594 C 263.535156 51.929688 264.984375 79.289062 262.976562 98.148438 C 261.960938 107.691406 258.863281 117.027344 254.019531 125.148438 C 249.132812 133.332031 242.421875 140.363281 234.605469 145.484375 C 227.898438 149.875 220.667969 153.34375 213.113281 155.796875 C 204.007812 158.75 194.332031 160.25 184.363281 160.253906 C 184.363281 160.253906 184.359375 160.253906 184.359375 160.253906 Z M 183.636719 4.761719 C 181.367188 4.761719 173.382812 4.972656 163.566406 7.636719 C 152.957031 10.519531 137.949219 16.953125 126.710938 31.242188 C 109.28125 53.398438 107.917969 79.625 109.847656 97.722656 C 111.808594 116.125 121.472656 132.273438 136.359375 142.027344 C 150.625 151.375 166.769531 156.117188 184.34375 156.117188 C 201.914062 156.117188 218.066406 151.375 232.347656 142.023438 C 247.242188 132.269531 256.910156 116.117188 258.871094 97.710938 C 260.796875 79.617188 259.433594 53.394531 242.007812 31.242188 C 230.734375 16.910156 215.667969 10.476562 205.015625 7.601562 C 193.449219 4.480469 184.523438 4.765625 184.433594 4.769531 C 184.382812 4.769531 184.332031 4.769531 184.28125 4.769531 C 184.269531 4.769531 184.046875 4.761719 183.636719 4.761719 Z M 183.636719 4.761719 " fill-opacity="1" fill-rule="nonzero"/></g><path fill="#102770" d="M 184.332031 145.128906 C 203.460938 145.128906 218.207031 139.96875 228.726562 134.191406 C 242.6875 126.523438 251.714844 113.699219 253.519531 99.472656 C 255.339844 85.113281 253.898438 65.035156 237.898438 47.976562 C 217.570312 26.300781 184.359375 27.320312 184.359375 27.320312 C 184.359375 27.320312 151.144531 26.300781 130.816406 47.976562 C 114.816406 65.039062 113.375 85.125 115.199219 99.484375 C 117.003906 113.703125 126.023438 126.527344 139.980469 134.195312 C 150.492188 139.972656 165.230469 145.128906 184.359375 145.128906 Z M 184.332031 145.128906 " fill-opacity="1" fill-rule="nonzero"/><path fill="#102770" d="M 184.359375 147.027344 C 184.347656 147.027344 184.339844 147.027344 184.332031 147.027344 C 184.328125 147.027344 184.328125 147.027344 184.324219 147.027344 C 167.769531 147.023438 152.539062 143.265625 139.066406 135.859375 C 131.996094 131.976562 125.917969 126.628906 121.488281 120.398438 C 117.070312 114.1875 114.246094 107.039062 113.316406 99.722656 C 111.484375 85.316406 112.796875 64.417969 129.433594 46.675781 C 134.226562 41.566406 140.109375 37.265625 146.917969 33.902344 C 152.335938 31.222656 158.351562 29.125 164.792969 27.667969 C 175.394531 25.269531 183.53125 25.398438 184.359375 25.421875 C 185.1875 25.398438 193.324219 25.269531 203.925781 27.667969 C 210.367188 29.125 216.382812 31.222656 221.800781 33.902344 C 228.609375 37.265625 234.492188 41.566406 239.28125 46.675781 C 255.917969 64.414062 257.230469 85.308594 255.402344 99.710938 C 254.476562 107.027344 251.648438 114.179688 247.226562 120.394531 C 242.792969 126.625 236.714844 131.972656 229.640625 135.855469 C 216.15625 143.261719 200.921875 147.019531 184.363281 147.027344 C 184.363281 147.027344 184.359375 147.027344 184.359375 147.027344 Z M 183.707031 29.214844 C 181.640625 29.214844 174.410156 29.375 165.527344 31.394531 C 155.925781 33.582031 142.347656 38.457031 132.203125 49.273438 C 116.574219 65.9375 115.351562 85.644531 117.078125 99.242188 C 118.832031 113.046875 127.511719 125.179688 140.890625 132.53125 C 153.808594 139.628906 168.425781 143.226562 184.34375 143.230469 C 200.265625 143.226562 214.890625 139.625 227.8125 132.527344 C 241.203125 125.171875 249.886719 113.039062 251.636719 99.234375 C 253.363281 85.636719 252.140625 65.9375 236.515625 49.273438 C 226.34375 38.429688 212.722656 33.550781 203.085938 31.371094 C 192.597656 29 184.496094 29.214844 184.414062 29.21875 C 184.378906 29.21875 184.339844 29.21875 184.296875 29.21875 C 184.289062 29.21875 184.082031 29.214844 183.707031 29.214844 Z M 183.707031 29.214844 " fill-opacity="1" fill-rule="nonzero"/><g mask="url(#b6b8b0dc59)"><g transform="matrix(1, 0, 0, 1, 124, 37)"><g clip-path="url(#cd41766b80)"><path fill="#ffffff" d="M 7.230469 41.371094 C 4.464844 43.171875 0.898438 40.789062 1.484375 37.535156 C 1.679688 36.449219 1.925781 35.378906 2.199219 34.316406 C 3.140625 30.894531 4.546875 27.632812 6.339844 24.585938 C 8.125 21.53125 10.316406 18.703125 12.816406 16.136719 C 15.320312 13.574219 18.199219 11.332031 21.253906 9.359375 C 26.703125 5.539062 32.691406 3.144531 37.066406 1.746094 C 40.589844 0.617188 44.394531 2.339844 45.878906 5.730469 C 47.417969 9.242188 45.957031 13.355469 42.535156 15.085938 C 40.527344 16.101562 38.496094 17.191406 37.277344 18.03125 C 34.902344 19.460938 32.648438 21.0625 30.433594 22.722656 C 28.21875 24.386719 26.066406 26.160156 23.921875 28.007812 C 21.753906 29.832031 19.566406 31.707031 17.277344 33.601562 C 14.996094 35.503906 12.628906 37.4375 10.089844 39.402344 C 9.363281 39.953125 8.335938 40.652344 7.230469 41.371094 Z M 7.230469 41.371094 " fill-opacity="1" fill-rule="nonzero"/><g clip-path="url(#1b94b2eda0)"><path fill="#102770" d="M 5.183594 42.597656 C 4.347656 42.597656 3.515625 42.351562 2.773438 41.859375 C 1.292969 40.875 0.570312 39.175781 0.886719 37.425781 C 1.070312 36.417969 1.304688 35.347656 1.613281 34.164062 C 2.554688 30.742188 3.96875 27.417969 5.816406 24.277344 C 7.585938 21.25 9.792969 18.367188 12.378906 15.710938 C 14.742188 13.292969 17.613281 10.988281 20.914062 8.855469 C 26.515625 4.925781 32.691406 2.507812 36.882812 1.167969 C 40.710938 -0.0546875 44.820312 1.800781 46.433594 5.488281 C 48.105469 9.300781 46.511719 13.753906 42.808594 15.628906 C 40.398438 16.847656 38.652344 17.824219 37.617188 18.53125 C 37.609375 18.539062 37.597656 18.542969 37.589844 18.550781 C 35.53125 19.789062 33.4375 21.226562 30.796875 23.210938 C 28.828125 24.6875 26.765625 26.359375 24.316406 28.46875 C 23.527344 29.132812 22.738281 29.800781 21.949219 30.46875 C 20.5625 31.644531 19.128906 32.859375 17.664062 34.070312 C 14.960938 36.324219 12.671875 38.167969 10.460938 39.878906 C 9.792969 40.390625 8.816406 41.0625 7.5625 41.882812 C 6.824219 42.359375 6.003906 42.597656 5.183594 42.597656 Z M 39.273438 2.003906 C 38.601562 2.003906 37.921875 2.109375 37.25 2.324219 C 33.136719 3.636719 27.082031 6.011719 21.601562 9.855469 C 21.59375 9.859375 21.589844 9.867188 21.582031 9.871094 C 18.351562 11.953125 15.550781 14.203125 13.25 16.558594 C 10.730469 19.144531 8.585938 21.949219 6.863281 24.890625 C 5.070312 27.945312 3.695312 31.167969 2.785156 34.476562 C 2.488281 35.625 2.257812 36.664062 2.082031 37.644531 C 1.851562 38.910156 2.375 40.136719 3.441406 40.847656 C 4.503906 41.554688 5.828125 41.558594 6.898438 40.863281 C 8.128906 40.0625 9.078125 39.40625 9.71875 38.914062 C 11.914062 37.214844 14.195312 35.378906 16.886719 33.132812 C 18.347656 31.921875 19.777344 30.710938 21.164062 29.539062 C 21.957031 28.867188 22.742188 28.203125 23.527344 27.542969 C 25.996094 25.417969 28.074219 23.730469 30.066406 22.238281 C 32.738281 20.234375 34.859375 18.777344 36.945312 17.515625 C 38.027344 16.78125 39.8125 15.777344 42.261719 14.542969 C 45.390625 12.960938 46.734375 9.199219 45.320312 5.976562 C 44.242188 3.503906 41.835938 2.003906 39.273438 2.003906 Z M 7.230469 41.371094 L 7.234375 41.371094 Z M 7.230469 41.371094 " fill-opacity="1" fill-rule="nonzero"/></g></g></g></g><g mask="url(#a4976fd6b5)"><g transform="matrix(1, 0, 0, 1, 177, 32)"><g clip-path="url(#43bd996e9b)"><g clip-path="url(#b5236d42a2)"><path fill="#ffffff" d="M 7.449219 16.273438 C 7.449219 16.273438 2.101562 15.265625 1.40625 8.285156 C 0.707031 1.304688 10.007812 0.914062 13.574219 1.769531 C 17.140625 2.621094 23.726562 2.234375 24.890625 7.820312 C 26.050781 13.402344 22.796875 20.542969 7.449219 16.273438 Z M 7.449219 16.273438 " fill-opacity="1" fill-rule="nonzero"/></g><g clip-path="url(#81168a1f39)"><path fill="#102770" d="M 15.652344 18.175781 C 13.425781 18.175781 10.683594 17.804688 7.308594 16.867188 C 7.085938 16.820312 5.734375 16.5 4.3125 15.375 C 2.921875 14.277344 1.183594 12.164062 0.800781 8.34375 C 0.582031 6.179688 1.230469 4.421875 2.71875 3.121094 C 5.824219 0.40625 11.464844 0.640625 13.714844 1.179688 C 14.394531 1.339844 15.214844 1.460938 16.082031 1.585938 C 19.621094 2.101562 24.464844 2.804688 25.484375 7.695312 C 26.148438 10.890625 25.367188 13.8125 23.339844 15.710938 C 21.988281 16.976562 19.652344 18.175781 15.652344 18.175781 Z M 10.386719 2.042969 C 7.980469 2.042969 5.195312 2.566406 3.519531 4.03125 C 2.339844 5.0625 1.832031 6.472656 2.007812 8.222656 C 2.648438 14.640625 7.363281 15.636719 7.566406 15.675781 C 7.582031 15.679688 7.597656 15.683594 7.613281 15.6875 C 16.519531 18.164062 20.628906 16.585938 22.511719 14.824219 C 24.222656 13.21875 24.871094 10.710938 24.292969 7.941406 C 23.449219 3.882812 19.441406 3.300781 15.90625 2.785156 C 15.011719 2.65625 14.167969 2.53125 13.429688 2.355469 C 12.613281 2.164062 11.542969 2.042969 10.386719 2.042969 Z M 10.386719 2.042969 " fill-opacity="1" fill-rule="nonzero"/></g></g></g></g><path fill="#102770" d="M 135.195312 43.226562 C 134.285156 43.226562 133.472656 42.578125 133.292969 41.652344 C 131.71875 33.414062 126.15625 28.878906 126.101562 28.832031 C 125.265625 28.164062 125.128906 26.945312 125.792969 26.109375 C 126.457031 25.273438 127.667969 25.132812 128.507812 25.792969 C 128.78125 26.011719 135.242188 31.214844 137.097656 40.921875 C 137.300781 41.976562 136.613281 42.992188 135.558594 43.191406 C 135.4375 43.214844 135.316406 43.226562 135.195312 43.226562 Z M 135.195312 43.226562 " fill-opacity="1" fill-rule="nonzero"/><path fill="#102770" d="M 233.523438 43.226562 C 233.402344 43.226562 233.28125 43.214844 233.15625 43.191406 C 232.105469 42.988281 231.417969 41.972656 231.617188 40.921875 C 233.472656 31.210938 239.9375 26.007812 240.207031 25.792969 C 241.046875 25.128906 242.265625 25.273438 242.929688 26.113281 C 243.589844 26.949219 243.449219 28.167969 242.613281 28.832031 C 242.53125 28.902344 236.992188 33.433594 235.421875 41.652344 C 235.246094 42.578125 234.433594 43.226562 233.523438 43.226562 Z M 233.523438 43.226562 " fill-opacity="1" fill-rule="nonzero"/><path fill="#ffffff" d="M 202.859375 95.8125 C 199.539062 95.074219 195.726562 91.644531 195.726562 91.644531 C 199.046875 99.851562 197.449219 112.347656 197.449219 112.347656 C 200.398438 110.878906 202.859375 95.8125 202.859375 95.8125 Z M 202.859375 95.8125 " fill-opacity="1" fill-rule="nonzero"/><path fill="#ffffff" d="M 167.949219 95.8125 C 167.949219 95.8125 170.40625 110.878906 173.355469 112.347656 C 173.355469 112.347656 171.757812 99.851562 175.078125 91.644531 C 175.078125 91.644531 171.265625 95.074219 167.949219 95.8125 Z M 167.949219 95.8125 " fill-opacity="1" fill-rule="nonzero"/><g clip-path="url(#a668548560)"><path fill="#ffffff" d="M 161.449219 93.335938 C 161.886719 93.617188 162.351562 93.839844 162.839844 94 C 163.914062 94.355469 165.058594 94.382812 166.214844 94.082031 C 168.074219 93.601562 169.417969 92.515625 170.976562 91.253906 C 173.789062 88.984375 177.289062 86.152344 185.347656 85.71875 L 185.457031 85.71875 C 193.515625 86.152344 197.019531 88.984375 199.828125 91.253906 C 201.386719 92.515625 202.730469 93.601562 204.59375 94.082031 C 205.742188 94.382812 206.894531 94.355469 207.964844 94.003906 C 208.453125 93.839844 208.921875 93.617188 209.347656 93.34375 C 211.890625 91.722656 213.351562 88.394531 212.984375 85.054688 C 212.433594 79.992188 209.367188 79.601562 209.238281 79.589844 L 207.46875 79.398438 L 208.503906 77.964844 C 208.535156 77.929688 211.324219 74.046875 209.703125 70.324219 C 208.769531 68.175781 207.613281 67.296875 205.722656 67.296875 C 204.632812 67.296875 203.308594 67.585938 201.675781 68.179688 C 200.421875 68.628906 199.003906 69.257812 197.335938 70.097656 C 188.875 74.351562 185.738281 74.472656 185.410156 74.472656 C 185.066406 74.472656 181.933594 74.351562 173.46875 70.097656 C 171.804688 69.257812 170.382812 68.628906 169.132812 68.179688 C 167.496094 67.585938 166.171875 67.296875 165.082031 67.296875 C 163.1875 67.296875 162.035156 68.175781 161.105469 70.320312 C 159.46875 74.066406 162.269531 77.929688 162.296875 77.964844 L 163.386719 79.441406 L 161.554688 79.589844 C 161.4375 79.601562 158.371094 79.992188 157.816406 85.054688 C 157.457031 88.394531 158.914062 91.722656 161.449219 93.335938 Z M 204.332031 71.710938 C 204.332031 71.710938 205.011719 86.035156 193.363281 80.796875 C 193.363281 80.796875 196.382812 73.753906 204.332031 71.710938 Z M 166.472656 71.710938 C 174.421875 73.753906 177.441406 80.796875 177.441406 80.796875 C 165.792969 86.035156 166.472656 71.710938 166.472656 71.710938 Z M 166.472656 71.710938 " fill-opacity="1" fill-rule="nonzero"/></g><g clip-path="url(#f745f6cb48)"><path fill="#ffffff" d="M 209.921875 95.355469 C 209.726562 95.464844 209.527344 95.5625 209.320312 95.65625 C 209.308594 98.261719 208.800781 107.246094 202.707031 113.875 C 198.585938 118.363281 192.773438 120.789062 185.445312 121.089844 L 185.359375 121.089844 C 178.027344 120.789062 172.222656 118.363281 168.097656 113.875 C 162.003906 107.246094 161.496094 98.261719 161.484375 95.65625 C 161.277344 95.566406 161.078125 95.464844 160.882812 95.359375 C 160.035156 95.910156 158.144531 97.738281 159.273438 102.691406 C 160.609375 108.539062 165.832031 122.269531 185.402344 123.453125 C 204.972656 122.269531 210.195312 108.539062 211.53125 102.691406 C 212.65625 97.738281 210.769531 95.910156 209.921875 95.355469 Z M 209.921875 95.355469 " fill-opacity="1" fill-rule="nonzero"/></g><g clip-path="url(#95ba2b7eae)"><path fill="#ffffff" d="M 185.398438 72.429688 C 185.433594 72.429688 188.3125 72.34375 196.414062 68.269531 C 197.40625 67.769531 198.304688 67.355469 199.152344 66.992188 C 197.15625 65.921875 192.933594 64.320312 185.402344 64.320312 C 177.792969 64.320312 173.601562 65.910156 171.632812 66.984375 C 172.488281 67.351562 173.390625 67.765625 174.390625 68.269531 C 182.496094 72.34375 185.371094 72.429688 185.398438 72.429688 Z M 185.398438 72.429688 " fill-opacity="1" fill-rule="nonzero"/></g></svg>