<svg xmlns="http://www.w3.org/2000/svg" xmlns:xlink="http://www.w3.org/1999/xlink" width="682" zoomAndPan="magnify" viewBox="0 0 511.5 245.999995" height="328" preserveAspectRatio="xMidYMid meet" version="1.0"><defs><g/><clipPath id="dee01d14a6"><path d="M 148.359375 145.292969 L 166.09375 145.292969 L 166.09375 240.097656 L 148.359375 240.097656 Z M 148.359375 145.292969 " clip-rule="nonzero"/></clipPath><clipPath id="80396759e1"><path d="M 278.445312 145.292969 L 296.179688 145.292969 L 296.179688 215.339844 L 278.445312 215.339844 Z M 278.445312 145.292969 " clip-rule="nonzero"/></clipPath><clipPath id="ed6f74ce20"><path d="M 225.976562 38.175781 L 243.710938 38.175781 L 243.710938 132.980469 L 225.976562 132.980469 Z M 225.976562 38.175781 " clip-rule="nonzero"/></clipPath><clipPath id="5833cf66af"><path d="M 41.867188 95.628906 L 59.867188 95.628906 L 59.867188 113.628906 L 41.867188 113.628906 Z M 41.867188 95.628906 " clip-rule="nonzero"/></clipPath><clipPath id="b92b9ab3c8"><path d="M 50.867188 95.628906 C 45.894531 95.628906 41.867188 99.65625 41.867188 104.628906 C 41.867188 109.597656 45.894531 113.628906 50.867188 113.628906 C 55.835938 113.628906 59.867188 109.597656 59.867188 104.628906 C 59.867188 99.65625 55.835938 95.628906 50.867188 95.628906 " clip-rule="nonzero"/></clipPath><clipPath id="678457e71c"><path d="M 451.566406 95.628906 L 469.566406 95.628906 L 469.566406 113.628906 L 451.566406 113.628906 Z M 451.566406 95.628906 " clip-rule="nonzero"/></clipPath><clipPath id="39dcb92e58"><path d="M 460.566406 95.628906 C 455.597656 95.628906 451.566406 99.65625 451.566406 104.628906 C 451.566406 109.597656 455.597656 113.628906 460.566406 113.628906 C 465.539062 113.628906 469.566406 109.597656 469.566406 104.628906 C 469.566406 99.65625 465.539062 95.628906 460.566406 95.628906 " clip-rule="nonzero"/></clipPath><clipPath id="d04596a5d3"><path d="M 41.867188 163.398438 L 59.867188 163.398438 L 59.867188 181.398438 L 41.867188 181.398438 Z M 41.867188 163.398438 " clip-rule="nonzero"/></clipPath><clipPath id="245aef43a7"><path d="M 50.867188 163.398438 C 45.894531 163.398438 41.867188 167.425781 41.867188 172.398438 C 41.867188 177.367188 45.894531 181.398438 50.867188 181.398438 C 55.835938 181.398438 59.867188 177.367188 59.867188 172.398438 C 59.867188 167.425781 55.835938 163.398438 50.867188 163.398438 " clip-rule="nonzero"/></clipPath><clipPath id="ec9a7f77e3"><path d="M 451.566406 163.398438 L 469.566406 163.398438 L 469.566406 181.398438 L 451.566406 181.398438 Z M 451.566406 163.398438 " clip-rule="nonzero"/></clipPath><clipPath id="8f048e86d7"><path d="M 460.566406 163.398438 C 455.597656 163.398438 451.566406 167.425781 451.566406 172.398438 C 451.566406 177.367188 455.597656 181.398438 460.566406 181.398438 C 465.539062 181.398438 469.566406 177.367188 469.566406 172.398438 C 469.566406 167.425781 465.539062 163.398438 460.566406 163.398438 " clip-rule="nonzero"/></clipPath><clipPath id="dd02da28a3"><path d="M 403.402344 62.9375 L 421.136719 62.9375 L 421.136719 132.980469 L 403.402344 132.980469 Z M 403.402344 62.9375 " clip-rule="nonzero"/></clipPath></defs><g fill="#000000" fill-opacity="1"><g transform="translate(78.615961, 215.146593)"><g><path d="M 32.46875 0 C 27.738281 0 23.597656 -0.726562 20.046875 -2.1875 C 17.234375 -3.1875 14.328125 -5.050781 11.328125 -7.78125 C 6.140625 -12.59375 3.773438 -18.679688 4.234375 -26.046875 L 4.234375 -27.546875 L 19.5 -27.28125 L 20.734375 -27.28125 L 20.734375 -26.1875 C 20.828125 -23.914062 21.328125 -22.050781 22.234375 -20.59375 C 23.773438 -17.957031 27.1875 -16.640625 32.46875 -16.640625 C 36.832031 -16.640625 39.96875 -17.140625 41.875 -18.140625 C 42.875 -18.597656 43.554688 -19.191406 43.921875 -19.921875 C 44.109375 -20.191406 44.203125 -20.460938 44.203125 -20.734375 L 44.328125 -21.421875 C 44.328125 -23.328125 42.828125 -24.867188 39.828125 -26.046875 C 38.648438 -26.503906 37.285156 -26.867188 35.734375 -27.140625 C 34.554688 -27.410156 33.238281 -27.640625 31.78125 -27.828125 C 26.320312 -28.367188 21.773438 -29.457031 18.140625 -31.09375 C 14.503906 -32.550781 11.503906 -34.554688 9.140625 -37.109375 C 5.867188 -40.828125 4.234375 -45.097656 4.234375 -49.921875 C 4.234375 -52.921875 4.773438 -55.695312 5.859375 -58.25 C 6.679688 -60.25 7.773438 -62.019531 9.140625 -63.5625 C 14.046875 -69.195312 21.910156 -72.015625 32.734375 -72.015625 C 39.191406 -72.015625 44.648438 -70.742188 49.109375 -68.203125 C 52.566406 -66.296875 55.335938 -63.703125 57.421875 -60.421875 C 59.054688 -57.972656 60.195312 -55.109375 60.84375 -51.828125 C 61.019531 -50.742188 61.15625 -49.703125 61.25 -48.703125 L 61.25 -45.828125 L 44.734375 -45.828125 L 44.734375 -47.875 C 44.648438 -48.238281 44.609375 -48.601562 44.609375 -48.96875 C 44.335938 -49.96875 43.972656 -50.785156 43.515625 -51.421875 C 41.515625 -54.148438 37.921875 -55.515625 32.734375 -55.515625 C 25.097656 -55.515625 21.28125 -53.925781 21.28125 -50.75 C 21.28125 -49.101562 22.1875 -47.78125 24 -46.78125 C 25.914062 -45.601562 29.144531 -44.742188 33.6875 -44.203125 C 44.144531 -43.109375 51.738281 -39.785156 56.46875 -34.234375 C 59.65625 -30.503906 61.25 -26.234375 61.25 -21.421875 L 61.25 -20.453125 L 61.109375 -19.234375 C 61.109375 -18.046875 60.972656 -16.953125 60.703125 -15.953125 C 59.972656 -13.046875 58.609375 -10.457031 56.609375 -8.1875 C 54.335938 -5.457031 51.15625 -3.410156 47.0625 -2.046875 C 42.96875 -0.679688 38.101562 0 32.46875 0 Z M 32.46875 0 "/></g></g></g><g fill="#000000" fill-opacity="1"><g transform="translate(85.504386, 132.788122)"><g><path d="M 60.296875 -8.453125 C 53.648438 -2.816406 45.921875 0 37.109375 0 C 27.367188 -0.09375 19.09375 -3.59375 12.28125 -10.5 C 5.457031 -17.414062 2.09375 -25.691406 2.1875 -35.328125 C 2.269531 -45.054688 5.769531 -53.332031 12.6875 -60.15625 C 19.59375 -66.976562 27.867188 -70.34375 37.515625 -70.25 C 46.242188 -70.15625 53.878906 -67.242188 60.421875 -61.515625 L 47.734375 -48.96875 C 44.648438 -51.238281 41.195312 -52.375 37.375 -52.375 C 32.644531 -52.375 28.550781 -50.738281 25.09375 -47.46875 C 21.726562 -44.101562 20.046875 -40.007812 20.046875 -35.1875 C 19.867188 -30.457031 21.507812 -26.367188 24.96875 -22.921875 C 28.238281 -19.640625 32.328125 -17.910156 37.234375 -17.734375 C 41.054688 -17.734375 44.515625 -18.867188 47.609375 -21.140625 Z M 60.296875 -8.453125 "/></g></g></g><g fill="#000000" fill-opacity="1"><g transform="translate(146.959697, 215.146593)"><g><path d="M 36.421875 -70.25 C 46.148438 -70.34375 54.425781 -66.976562 61.25 -60.15625 C 68.15625 -53.238281 71.609375 -44.960938 71.609375 -35.328125 C 71.703125 -25.597656 68.335938 -17.320312 61.515625 -10.5 C 54.691406 -3.59375 46.460938 -0.09375 36.828125 0 C 27.097656 0.09375 18.78125 -3.269531 11.875 -10.09375 C 4.957031 -16.914062 1.5 -25.191406 1.5 -34.921875 C 1.40625 -44.648438 4.769531 -52.925781 11.59375 -59.75 C 18.414062 -66.65625 26.691406 -70.15625 36.421875 -70.25 Z M 48.828125 -22.921875 C 52.191406 -26.285156 53.875 -30.375 53.875 -35.1875 C 53.875 -39.914062 52.148438 -44.007812 48.703125 -47.46875 C 45.242188 -50.738281 41.148438 -52.375 36.421875 -52.375 C 31.691406 -52.375 27.644531 -50.691406 24.28125 -47.328125 C 20.914062 -43.785156 19.234375 -39.695312 19.234375 -35.0625 C 19.234375 -30.332031 20.960938 -26.238281 24.421875 -22.78125 C 27.785156 -19.414062 31.875 -17.734375 36.6875 -17.734375 C 41.601562 -17.910156 45.648438 -19.640625 48.828125 -22.921875 Z M 48.828125 -22.921875 "/></g></g></g><g clip-path="url(#dee01d14a6)"><path fill="#000000" d="M 148.359375 145.292969 L 166.09375 145.292969 L 166.09375 240.097656 L 148.359375 240.097656 Z M 148.359375 145.292969 " fill-opacity="1" fill-rule="nonzero"/></g><g fill="#000000" fill-opacity="1"><g transform="translate(224.102029, 215.146593)"><g><path d="M 36.421875 -70.25 C 46.148438 -70.34375 54.425781 -66.976562 61.25 -60.15625 C 68.15625 -53.238281 71.609375 -44.960938 71.609375 -35.328125 C 71.703125 -25.597656 68.335938 -17.320312 61.515625 -10.5 C 54.691406 -3.59375 46.460938 -0.09375 36.828125 0 C 27.097656 0.09375 18.78125 -3.269531 11.875 -10.09375 C 4.957031 -16.914062 1.5 -25.191406 1.5 -34.921875 C 1.40625 -44.648438 4.769531 -52.925781 11.59375 -59.75 C 18.414062 -66.65625 26.691406 -70.15625 36.421875 -70.25 Z M 48.828125 -22.921875 C 52.191406 -26.285156 53.875 -30.375 53.875 -35.1875 C 53.875 -39.914062 52.148438 -44.007812 48.703125 -47.46875 C 45.242188 -50.738281 41.148438 -52.375 36.421875 -52.375 C 31.691406 -52.375 27.644531 -50.691406 24.28125 -47.328125 C 20.914062 -43.785156 19.234375 -39.695312 19.234375 -35.0625 C 19.234375 -30.332031 20.960938 -26.238281 24.421875 -22.78125 C 27.785156 -19.414062 31.875 -17.734375 36.6875 -17.734375 C 41.601562 -17.910156 45.648438 -19.640625 48.828125 -22.921875 Z M 48.828125 -22.921875 "/></g></g></g><g clip-path="url(#80396759e1)"><path fill="#000000" d="M 278.445312 145.292969 L 296.179688 145.292969 L 296.179688 215.339844 L 278.445312 215.339844 Z M 278.445312 145.292969 " fill-opacity="1" fill-rule="nonzero"/></g><g fill="#000000" fill-opacity="1"><g transform="translate(224.578839, 132.788122)"><g><path d="M 36.421875 -70.25 C 46.148438 -70.34375 54.425781 -66.976562 61.25 -60.15625 C 68.15625 -53.238281 71.609375 -44.960938 71.609375 -35.328125 C 71.703125 -25.597656 68.335938 -17.320312 61.515625 -10.5 C 54.691406 -3.59375 46.460938 -0.09375 36.828125 0 C 27.097656 0.09375 18.78125 -3.269531 11.875 -10.09375 C 4.957031 -16.914062 1.5 -25.191406 1.5 -34.921875 C 1.40625 -44.648438 4.769531 -52.925781 11.59375 -59.75 C 18.414062 -66.65625 26.691406 -70.15625 36.421875 -70.25 Z M 48.828125 -22.921875 C 52.191406 -26.285156 53.875 -30.375 53.875 -35.1875 C 53.875 -39.914062 52.148438 -44.007812 48.703125 -47.46875 C 45.242188 -50.738281 41.148438 -52.375 36.421875 -52.375 C 31.691406 -52.375 27.644531 -50.691406 24.28125 -47.328125 C 20.914062 -43.785156 19.234375 -39.695312 19.234375 -35.0625 C 19.234375 -30.332031 20.960938 -26.238281 24.421875 -22.78125 C 27.785156 -19.414062 31.875 -17.734375 36.6875 -17.734375 C 41.601562 -17.910156 45.648438 -19.640625 48.828125 -22.921875 Z M 48.828125 -22.921875 "/></g></g></g><g clip-path="url(#ed6f74ce20)"><path fill="#000000" d="M 225.976562 38.175781 L 243.710938 38.175781 L 243.710938 132.980469 L 225.976562 132.980469 Z M 225.976562 38.175781 " fill-opacity="1" fill-rule="nonzero"/></g><g fill="#000000" fill-opacity="1"><g transform="translate(301.585661, 215.146593)"><g><path d="M 60.296875 -8.453125 C 53.648438 -2.816406 45.921875 0 37.109375 0 C 27.367188 -0.09375 19.09375 -3.59375 12.28125 -10.5 C 5.457031 -17.414062 2.09375 -25.691406 2.1875 -35.328125 C 2.269531 -45.054688 5.769531 -53.332031 12.6875 -60.15625 C 19.59375 -66.976562 27.867188 -70.34375 37.515625 -70.25 C 46.242188 -70.15625 53.878906 -67.242188 60.421875 -61.515625 L 47.734375 -48.96875 C 44.648438 -51.238281 41.195312 -52.375 37.375 -52.375 C 32.644531 -52.375 28.550781 -50.738281 25.09375 -47.46875 C 21.726562 -44.101562 20.046875 -40.007812 20.046875 -35.1875 C 19.867188 -30.457031 21.507812 -26.367188 24.96875 -22.921875 C 28.238281 -19.640625 32.328125 -17.910156 37.234375 -17.734375 C 41.054688 -17.734375 44.515625 -18.867188 47.609375 -21.140625 Z M 60.296875 -8.453125 "/></g></g></g><g fill="#000000" fill-opacity="1"><g transform="translate(361.808332, 215.146593)"><g><path d="M 71.75 -32.0625 C 71.84375 -30.144531 71.84375 -29.003906 71.75 -28.640625 L 20.453125 -28.78125 C 21.179688 -26.6875 22.503906 -24.6875 24.421875 -22.78125 C 27.960938 -19.414062 32.050781 -17.734375 36.6875 -17.734375 C 41.601562 -17.910156 45.695312 -19.640625 48.96875 -22.921875 L 49.515625 -23.46875 L 67.25 -17.875 C 63.332031 -11.78125 59.238281 -7.414062 54.96875 -4.78125 C 50.144531 -1.6875 44.097656 -0.09375 36.828125 0 C 27.191406 0.09375 18.914062 -3.269531 12 -10.09375 C 5.09375 -16.914062 1.59375 -25.191406 1.5 -34.921875 C 1.40625 -44.554688 4.769531 -52.832031 11.59375 -59.75 C 18.414062 -66.65625 26.691406 -70.15625 36.421875 -70.25 C 46.054688 -70.34375 54.332031 -66.976562 61.25 -60.15625 C 68.15625 -53.332031 71.65625 -45.054688 71.75 -35.328125 Z M 36.5625 -52.375 C 31.738281 -52.375 27.644531 -50.691406 24.28125 -47.328125 C 22.550781 -45.421875 21.320312 -43.515625 20.59375 -41.609375 L 52.65625 -41.609375 C 51.925781 -43.515625 50.648438 -45.46875 48.828125 -47.46875 C 45.378906 -50.738281 41.289062 -52.375 36.5625 -52.375 Z M 36.5625 -52.375 "/></g></g></g><g fill="#000000" fill-opacity="1"><g transform="translate(450.851019, 179.186301)"><g><path d="M 4.09375 -13.78125 L 30.96875 -40.921875 L 4.09375 -67.796875 L 16.640625 -80.34375 L 56.0625 -40.921875 L 16.640625 -1.359375 Z M 4.09375 -13.78125 "/></g></g></g><g fill="#000000" fill-opacity="1"><g transform="translate(0.484863, 179.186301)"><g><path d="M 4.09375 -40.921875 L 43.375 -80.609375 L 56.0625 -68.0625 L 29.046875 -41.0625 L 56.0625 -14.046875 L 43.515625 -1.5 Z M 4.09375 -40.921875 "/></g></g></g><g clip-path="url(#5833cf66af)"><g clip-path="url(#b92b9ab3c8)"><path fill="#ffbd59" d="M 41.867188 95.628906 L 59.867188 95.628906 L 59.867188 113.628906 L 41.867188 113.628906 Z M 41.867188 95.628906 " fill-opacity="1" fill-rule="nonzero"/></g></g><g clip-path="url(#678457e71c)"><g clip-path="url(#39dcb92e58)"><path fill="#38b6ff" d="M 451.566406 95.628906 L 469.566406 95.628906 L 469.566406 113.628906 L 451.566406 113.628906 Z M 451.566406 95.628906 " fill-opacity="1" fill-rule="nonzero"/></g></g><g clip-path="url(#d04596a5d3)"><g clip-path="url(#245aef43a7)"><path fill="#38b6ff" d="M 41.867188 163.398438 L 59.867188 163.398438 L 59.867188 181.398438 L 41.867188 181.398438 Z M 41.867188 163.398438 " fill-opacity="1" fill-rule="nonzero"/></g></g><g clip-path="url(#ec9a7f77e3)"><g clip-path="url(#8f048e86d7)"><path fill="#ffbd59" d="M 451.566406 163.398438 L 469.566406 163.398438 L 469.566406 181.398438 L 451.566406 181.398438 Z M 451.566406 163.398438 " fill-opacity="1" fill-rule="nonzero"/></g></g><g fill="#000000" fill-opacity="1"><g transform="translate(147.982901, 132.788122)"><g><path d="M 36.421875 -70.25 C 46.148438 -70.34375 54.425781 -66.976562 61.25 -60.15625 C 68.15625 -53.238281 71.609375 -44.960938 71.609375 -35.328125 C 71.703125 -25.597656 68.335938 -17.320312 61.515625 -10.5 C 54.691406 -3.59375 46.460938 -0.09375 36.828125 0 C 27.097656 0.09375 18.78125 -3.269531 11.875 -10.09375 C 4.957031 -16.914062 1.5 -25.191406 1.5 -34.921875 C 1.40625 -44.648438 4.769531 -52.925781 11.59375 -59.75 C 18.414062 -66.65625 26.691406 -70.15625 36.421875 -70.25 Z M 48.828125 -22.921875 C 52.191406 -26.285156 53.875 -30.375 53.875 -35.1875 C 53.875 -39.914062 52.148438 -44.007812 48.703125 -47.46875 C 45.242188 -50.738281 41.148438 -52.375 36.421875 -52.375 C 31.691406 -52.375 27.644531 -50.691406 24.28125 -47.328125 C 20.914062 -43.785156 19.234375 -39.695312 19.234375 -35.0625 C 19.234375 -30.332031 20.960938 -26.238281 24.421875 -22.78125 C 27.785156 -19.414062 31.875 -17.734375 36.6875 -17.734375 C 41.601562 -17.910156 45.648438 -19.640625 48.828125 -22.921875 Z M 48.828125 -22.921875 "/></g></g></g><g fill="#000000" fill-opacity="1"><g transform="translate(299.333469, 132.788122)"><g><path d="M 23.1875 -59.75 C 24.738281 -64.113281 27.332031 -67.160156 30.96875 -68.890625 C 34.507812 -70.617188 39.828125 -71.484375 46.921875 -71.484375 L 46.921875 -51.96875 C 40.015625 -51.96875 34.238281 -49.601562 29.59375 -44.875 C 25.320312 -40.695312 23.1875 -36.101562 23.1875 -31.09375 L 23.1875 0 L 4.09375 0 L 4.09375 -70.25 L 23.1875 -70.25 Z M 23.1875 -59.75 "/></g></g></g><g fill="#000000" fill-opacity="1"><g transform="translate(349.056122, 132.788122)"><g><path d="M 36.421875 -70.25 C 46.148438 -70.34375 54.425781 -66.976562 61.25 -60.15625 C 68.15625 -53.238281 71.609375 -44.960938 71.609375 -35.328125 C 71.703125 -25.597656 68.335938 -17.320312 61.515625 -10.5 C 54.691406 -3.59375 46.460938 -0.09375 36.828125 0 C 27.097656 0.09375 18.78125 -3.269531 11.875 -10.09375 C 4.957031 -16.914062 1.5 -25.191406 1.5 -34.921875 C 1.40625 -44.648438 4.769531 -52.925781 11.59375 -59.75 C 18.414062 -66.65625 26.691406 -70.15625 36.421875 -70.25 Z M 48.828125 -22.921875 C 52.191406 -26.285156 53.875 -30.375 53.875 -35.1875 C 53.875 -39.914062 52.148438 -44.007812 48.703125 -47.46875 C 45.242188 -50.738281 41.148438 -52.375 36.421875 -52.375 C 31.691406 -52.375 27.644531 -50.691406 24.28125 -47.328125 C 20.914062 -43.785156 19.234375 -39.695312 19.234375 -35.0625 C 19.234375 -30.332031 20.960938 -26.238281 24.421875 -22.78125 C 27.785156 -19.414062 31.875 -17.734375 36.6875 -17.734375 C 41.601562 -17.910156 45.648438 -19.640625 48.828125 -22.921875 Z M 48.828125 -22.921875 "/></g></g></g><g clip-path="url(#dd02da28a3)"><path fill="#000000" d="M 403.402344 62.9375 L 421.136719 62.9375 L 421.136719 132.980469 L 403.402344 132.980469 Z M 403.402344 62.9375 " fill-opacity="1" fill-rule="nonzero"/></g></svg>